<?xml version="1.0" encoding="utf-8"?>
<!-- Generator: Adobe Illustrator 22.0.1, SVG Export Plug-In . SVG Version: 6.00 Build 0)  -->
<svg version="1.1" id="Capa_1" xmlns="http://www.w3.org/2000/svg" xmlns:xlink="http://www.w3.org/1999/xlink" x="0px" y="0px"
	 viewBox="0 0 512 384" style="enable-background:new 0 0 512 384;" xml:space="preserve">
<style type="text/css">
	.st0{fill:#FFFFFF;}
</style>
<g>
	<path class="st0" d="M512,322c0,11.2-3.2,21.6-8.2,30.8L342.1,171.9L502,32c6.2,9.9,10,21.5,10,34L512,322L512,322z M256,204.7
		L478.5,10.1C469.4,5.1,459.1,2,448,2H64c-11.1,0-21.4,3.1-30.5,8.1L256,204.7z M318,193l-51.5,45.1c-3,2.6-6.8,3.9-10.5,3.9
		c-3.8,0-7.5-1.3-10.5-3.9L194,193L30.2,376.2c9.8,6.2,21.3,9.8,33.7,9.8h384c12.4,0,23.9-3.7,33.7-9.8L318,193z M10,32
		C3.8,41.9,0,53.5,0,66v256c0,11.2,3.1,21.6,8.2,30.8l161.6-180.9L10,32z"/>
</g>
</svg>
