<?xml version="1.0" encoding="utf-8"?>
<!-- Generator: Adobe Illustrator 19.1.0, SVG Export Plug-In . SVG Version: 6.00 Build 0)  -->
<svg version="1.1" id="Слой_1__x28_копия_x29_"
	 xmlns="http://www.w3.org/2000/svg" xmlns:xlink="http://www.w3.org/1999/xlink" x="0px" y="0px" viewBox="65 -168 873.9 706"
	 style="enable-background:new 65 -168 873.9 706;" xml:space="preserve">
<style type="text/css">
	.st0{display:none;}
	.st1{display:inline;}
	.st2{display:none;enable-background:new    ;}
	.st3{font-family:'ArialMT';}
	.st4{font-size:223.7756px;}
	.st5{fill:#FFFFFF;stroke:#FFFFFF;stroke-width:4;stroke-miterlimit:10;}
	.st6{display:none;fill:#0C9E2E;enable-background:new    ;}
	.st7{fill:#FFFFFF;}
	.st8{fill:#0C9E2E;}
</style>
<g class="st0">
	<path class="st1" d="M550.8,226.9c35.7,15.5,90.6,31,147.2,31c61,0,93.2-21.4,93.2-53.9c0-31-27.9-48.7-98.4-70.2
		c-97.6-28.8-161.2-74.6-161.2-147c0-84.9,83.6-149.9,222.1-149.9c66.2,0,155.8,21.8,190.7,35.1L874-47.1
		c-23.5-9.6-65.3-23.6-122.8-23.6c-57.5,0-85.4,22.2-85.4,48c0,31.8,33.1,45.8,108.9,70.2c103.7,32.5,152.5,78.3,152.5,148.4
		c0,83.4-75.8,154.3-237,154.3c-67.1,0-180.4-21.3-213.5-36.8L550.8,226.9z"/>
</g>
<text id="ilter_Systems_SHG_3_" transform="matrix(1 0 0 1 922.912 354.0001)" class="st2 st3 st4">ystems</text>
<g>
	<path class="st5" d="M76.4,468.4h42.1v2.3H76.4v38.4h-2.5V430H122v2.3H76.4V468.4z"/>
	<path class="st5" d="M135.5,436.5c0,1.3-1,2.3-2.3,2.3c-1.3,0-2.3-1-2.3-2.3s1-2.3,2.3-2.3C134.5,434.2,135.5,435.2,135.5,436.5z
		 M131.9,509.1v-60.3h2.5v60.3H131.9z"/>
	<path class="st5" d="M152.9,495.3c0,4,0,6.3,0.1,7.9c0.2,3.8,1.7,4.6,6.4,4v2.2c-1.1,0.2-2.2,0.2-3.3,0.2c-3.1,0-5.4-1.3-5.6-5.8
		c-0.1-2.3-0.1-4.1-0.1-8.5v-70.5h2.5V495.3z"/>
	<path class="st5" d="M187.6,507.5v2.1c-1.5,0.2-3.8,0.3-5.7,0.3c-5.4,0-8.3-2.5-8.7-7.8c-0.2-2.8-0.2-4.7-0.2-8.1v-42.7h-7.2v-2.1
		h7.2v-12.4h2.5v12.4h11.8v2.1h-11.8v43.1c0,3.2,0,4.9,0.1,6.5C176,506.9,178.6,508.8,187.6,507.5z"/>
	<path class="st5" d="M245,479.5h-49.4c0.5,20.9,12.4,28.8,23.5,28.8c9.5,0,19-5.4,22.6-17.7h2.5c-3.7,13.3-13.9,20.1-25.3,20.1
		c-14,0-25.9-10.9-25.9-32c0-19,11.9-31.5,26.8-31.5c17.3,0,25.3,15.1,25.3,30.2C245.1,477.8,245.1,478.2,245,479.5z M195.6,477.1
		h47c-0.5-20.9-12.7-27.5-23.1-27.5C208.9,449.6,196,458.2,195.6,477.1z"/>
	<path class="st5" d="M278.6,447.3v2.3c-11-0.9-18.7,6.5-18.7,26.5v33h-2.5v-60.3h2.5v13l2.4-6.9c3.2-4.8,8-7.7,13.6-7.7
		C276.9,447.2,277.8,447.2,278.6,447.3z"/>
	<path class="st5" d="M356.6,450.1h-2.5c-2.1-12.2-10.7-19.4-21.8-19.4c-10.1,0-21.6,5.8-21.6,17.2s7,14.9,22.8,19.5
		c16.4,4.7,24.4,10.1,24.4,22.5c0,11.7-10.9,20.8-25.7,20.8c-13.9,0-26.4-7-28-22.2h2.5c1.5,13,12.7,19.8,25.6,19.8
		c13,0,22.8-7.5,22.8-18.1c0-11.4-6.8-15.6-22.8-20.2c-17-4.8-24.4-9.6-24.4-21.8c0-11.6,11.4-19.8,24.4-19.8
		C347.2,428.4,355.1,438.3,356.6,450.1z"/>
	<path class="st5" d="M392.3,509.1c-8.1,21.2-13,24.1-19.6,24.1c-1.6,0-2.8-0.1-4-0.5v-2.3c1.5,0.3,3,0.5,4.5,0.5
		c4.6,0,8.9-3.2,14.1-15.8l1.9-4.8l-23.6-61.5h2.9l22.1,58.3l22.1-58.3h2.9L392.3,509.1z"/>
	<path class="st5" d="M461.5,465.2H459c-2.5-10.6-8.1-15.6-18-15.6c-8.4,0-16.1,4.9-16.1,13.8c0,8.5,6.8,11.8,16.4,14
		c13.9,3.1,20.8,7.5,20.8,17.5c0,9.6-8.5,15.8-20.3,15.8c-11.2,0-20.9-5.7-22.4-19.5h2.5c1.9,12.7,10,17.1,20.1,17.1
		c9.5,0,17.4-4.6,17.4-13.3c0-8.4-4.8-11.9-19.3-15.3c-9.5-2.2-17.9-6.1-17.9-16.3c0-9.3,7.8-16.3,18.8-16.3
		C453.6,447.2,459.9,455.2,461.5,465.2z"/>
	<path class="st5" d="M491.5,507.5v2.1c-1.5,0.2-3.8,0.3-5.7,0.3c-5.4,0-8.3-2.5-8.7-7.8c-0.2-2.8-0.2-4.7-0.2-8.1v-42.7h-7.2v-2.1
		h7.2v-12.4h2.5v12.4h11.8v2.1h-11.8v43.1c0,3.2,0,4.9,0.1,6.5C479.9,506.9,482.5,508.8,491.5,507.5z"/>
	<path class="st5" d="M548.9,479.5h-49.4c0.5,20.9,12.4,28.8,23.5,28.8c9.5,0,19-5.4,22.6-17.7h2.5c-3.7,13.3-13.9,20.1-25.3,20.1
		c-14,0-25.9-10.9-25.9-32c0-19,11.9-31.5,26.8-31.5c17.3,0,25.3,15.1,25.3,30.2C549,477.8,549,478.2,548.9,479.5z M499.5,477.1h47
		c-0.5-20.9-12.7-27.5-23.1-27.5C512.8,449.6,500,458.2,499.5,477.1z"/>
	<path class="st5" d="M638.4,475.6v33.5h-2.5v-32.5c0-4.2-0.1-6.9-0.5-10c-1.1-10.2-5.8-17.2-15.7-17.2c-10.1,0-18.6,7.8-18.6,25
		v34.6h-2.5v-32.5c0-4.2-0.1-6.9-0.5-10c-1.1-10.2-5.8-17.2-15.7-17.2c-10.1,0-18.6,7.8-18.6,25v34.6h-2.5v-60.3h2.5v12.8l2.8-6.5
		c4.1-5.4,9.6-7.9,15.9-7.9c9.9,0,15.8,5.7,17.7,15.7l3.7-7.8c4.1-5.4,9.6-7.9,15.9-7.9c10.8,0,16.9,6.8,18.1,18.6
		C638.3,468.8,638.4,470.7,638.4,475.6z"/>
	<path class="st5" d="M691,465.2h-2.5c-2.5-10.6-8.1-15.6-18-15.6c-8.4,0-16.1,4.9-16.1,13.8c0,8.5,6.8,11.8,16.4,14
		c13.9,3.1,20.8,7.5,20.8,17.5c0,9.6-8.5,15.8-20.3,15.8c-11.2,0-20.9-5.7-22.4-19.5h2.5c1.9,12.7,10,17.1,20.1,17.1
		c9.5,0,17.4-4.6,17.4-13.3c0-8.4-4.8-11.9-19.3-15.3c-9.5-2.2-17.9-6.1-17.9-16.3c0-9.3,7.8-16.3,18.8-16.3
		C683.1,447.2,689.4,455.2,691,465.2z"/>
	<path class="st5" d="M773.7,450.1h-2.5c-2.1-12.2-10.7-19.4-21.8-19.4c-10.1,0-21.6,5.8-21.6,17.2s7,14.9,22.8,19.5
		c16.4,4.7,24.4,10.1,24.4,22.5c0,11.7-10.9,20.8-25.7,20.8c-13.9,0-26.4-7-28-22.2h2.5c1.5,13,12.7,19.8,25.6,19.8
		c13,0,22.8-7.5,22.8-18.1c0-11.4-6.8-15.6-22.8-20.2c-17-4.8-24.4-9.6-24.4-21.8c0-11.6,11.4-19.8,24.4-19.8
		C764.3,428.4,772.2,438.3,773.7,450.1z"/>
	<path class="st5" d="M848.2,509.1h-2.5v-37.6h-50.9v37.6h-2.5V430h2.5v39.1h50.9V430h2.5V509.1z"/>
	<path class="st5" d="M929,473.9v35.2h-2.5V488l-2.3,7.5c-6.5,11-17.2,15.3-27.4,15.3c-20,0-34.6-15.1-34.6-40.9
		c0-24.7,15.9-41.4,37-41.4c17.3,0,27,11,29.8,25.2l0.2,1.1h-2.5l-0.2-1.1c-2.6-13-12-22.8-27.8-22.8c-17.3,0-33.8,13.5-33.8,38.9
		c0,26.3,14.8,38.6,32.1,38.6c12,0,29.5-7.8,29.5-32.1h-26.7v-2.3H929z"/>
</g>
<g class="st0">
	<path class="st1" d="M644,119.4l90.2-72c4.2-3.3,3-9.9-2.1-11.6c-20.6-6.9-37.1-13.1-49.7-19.6c-1.6-0.8-3.6-1-5.3-0.3L552.6,60.3
		c-4.8,1.7-6,7.9-2.2,11.3c21.8,19.5,51.5,35.6,87.1,48.8C639.7,121.3,642.2,120.9,644,119.4z"/>
	<path class="st1" d="M701.7-166.3c-39.9,3.6-74.4,12.7-102.8,26.1c-4.7,2.2-5.2,8.7-0.9,11.6l87.7,59.4c1.7,1.1,3.7,1.5,5.7,0.9
		c8.9-2.7,19.3-4.5,31.1-5.4c4.2-0.3,7-4.3,6-8.3l-19.7-79.2C708.1-164.4,705-166.6,701.7-166.3z"/>
	<path class="st1" d="M753.7,45.9l-90.6,72.4c-4.2,3.4-2.9,10.1,2.2,11.7c4,1.2,8.1,2.5,12.2,3.6c12.5,3.7,23.7,7.2,33.7,10.8
		c1.7,0.6,3.6,0.5,5.2-0.3L836,86.4c5-2.4,5.1-9.5,0.2-12c-20.5-10.6-44.8-20-72.9-28.6c-1.1-0.4-2.3-0.7-3.4-1.1
		C757.8,44.1,755.5,44.5,753.7,45.9z"/>
	<path class="st1" d="M672.8,345.9l-7.7-81.1c-0.3-3.3-2.9-5.8-6.2-6.1c-16.2-1.1-32.1-3.3-47.3-6.2c-3.4-0.6-6.7,1.4-7.7,4.8
		l-22.7,80.5c-1.1,3.9,1.5,7.9,5.6,8.5c27.9,3.8,55.7,6.4,79.2,7C670,353.3,673.2,349.9,672.8,345.9z"/>
	<path class="st1" d="M852.3,90.7l-100.6,48.5c-9.2,4.4-9.8,17.4-0.9,22.5c15.4,9,24.4,18.7,28,30.2c1.5,4.9,5.6,8.4,10.7,9
		l119,14.5c7.3,0.9,13.9-4.6,14.3-12c0.1-2.3,0.2-4.6,0.2-6.9c0-43.2-18.8-77.3-57.7-104.8C861.4,89.1,856.5,88.7,852.3,90.7z"/>
	<path class="st1" d="M657.1,11.3c4.6-1.6,5.9-7.4,2.5-11c-7-7.4-10.4-15.7-10.4-25.7c0-0.2,0-0.5,0-0.7c0.1-3.4-2.5-6.4-5.9-6.8
		L519.3-48.1c-3.4-0.4-6.6,1.8-7.4,5.2c-2,8.8-3,17.9-3,27.2c0,25.4,8,47.6,22.6,67c1.8,2.3,4.8,3.2,7.6,2.2L657.1,11.3z"/>
	<path class="st1" d="M747.3,253.6c-1.8-2.1-4.6-2.7-7.2-1.8c-15,5.1-34.1,8.2-57,8.2c0,0,0,0-0.1,0c-3.9,0-7,3.1-6.7,7.1l7.6,80.1
		c0.3,3.5,3.4,6.1,6.9,6c44.3-1.2,82.1-7.7,113.4-18.1c4.5-1.5,6.1-7.1,3-10.7L747.3,253.6z"/>
	<path class="st1" d="M588,247.4c-20.6-5.1-39.2-11.3-54.7-17.6c-2.6-1.1-5.7-0.4-7.5,1.8l-68.1,77.2c-3.2,3.6-1.7,9.2,2.8,10.8
		c22,7.8,60.6,16.5,101.8,23.1c3.4,0.5,6.6-1.5,7.5-4.8l23.1-82.1C593.9,252.1,591.7,248.4,588,247.4z"/>
	<path class="st1" d="M779.1,216.5c-2.7,9.7-8.8,18.1-18.2,24.8c-3.2,2.3-3.8,6.8-1.2,9.8l61.5,72.5c1.9,2.3,5.2,3,7.9,1.8
		c47.2-21.3,76.1-53.1,87.9-89.7c1.3-4-1.4-8.3-5.6-8.8l-125-15.2C783.1,211.3,780,213.3,779.1,216.5z"/>
	<path class="st1" d="M746.9-74.1c15.5,0.3,29.9,1.6,43,3.5c4,0.6,7.6-2.6,7.6-6.6v-80.9c0-3.4-2.6-6.3-6-6.7
		c-17.4-1.9-34.4-3.1-50.2-3.1c-4.9,0-9.7,0.1-14.5,0.2c-4.3,0.1-7.3,4.2-6.3,8.3l19.9,80.2C741.3-76.3,743.9-74.2,746.9-74.1z"/>
	<path class="st1" d="M656.1-46c2.9-4,6.7-7.8,11.5-11.2c3.8-2.7,3.8-8.4-0.1-11l-85.9-58.2c-2.2-1.5-5.2-1.5-7.4-0.1
		c-24.6,16-42.7,35.9-53.5,58.5c-2,4.1,0.7,9,5.2,9.6l123.9,15.1C652.2-43,654.6-44,656.1-46z"/>
	<path class="st1" d="M808.6-155.1V-73c0,3.2,2.2,5.9,5.3,6.6c20.3,4.3,36.7,9.8,49.1,14.5c2.6,1,5.5,0.3,7.4-1.8l63.9-71.2
		c3.2-3.6,1.7-9.4-2.9-10.9c-26.4-8.6-70.2-19.3-115.1-26C812.2-162.3,808.6-159.2,808.6-155.1z"/>
</g>
<g class="st0">
	<path class="st1" d="M816.8-67.5c0.1,0,0.1,0,0.2,0c3.8,0.9,7.7-1.2,9.2-4.9l29.3-74.5c1.8-4.6-1-9.8-5.9-10.7
		c-2.3-0.4-4.6-0.9-6.9-1.3c-4-0.7-7.9,1.7-9.1,5.6L811-77.5C809.6-73.1,812.3-68.5,816.8-67.5z"/>
	<path class="st1" d="M608.2,102.2l99.3-65.8c4.6-3,3.8-9.9-1.3-11.9c-0.1,0-0.1,0-0.2-0.1c-2-0.8-4.3-0.5-6.1,0.7L600.6,91
		c-4.3,2.9-3.9,9.3,0.7,11.7c0,0,0.1,0,0.1,0.1C603.7,103.8,606.2,103.6,608.2,102.2z"/>
	<path class="st1" d="M794.6-71.7c0,0,0.1,0,0.1,0c3.5,0.5,6.9-1.6,7.9-5l22.9-77c1.2-4.1-1.5-8.4-5.8-9.1c-2.4-0.4-4.8-0.7-7.1-1.1
		c-3.7-0.5-7.2,1.9-7.9,5.6l-16,78C787.9-76.1,790.6-72.3,794.6-71.7z"/>
	<path class="st1" d="M763.9,43.9C763.8,43.9,763.8,43.9,763.9,43.9c-2.2-0.7-4.7-0.4-6.6,0.9l-100.8,66.9
		c-5.3,3.5-4.3,11.7,1.8,13.7c0.9,0.3,1.8,0.6,2.6,0.9c2.2,0.7,4.6,0.4,6.6-0.9l100.9-66.9c5.4-3.6,4.2-11.8-2-13.8
		C765.6,44.5,764.7,44.2,763.9,43.9z"/>
	<path class="st1" d="M732.3,33.8c-0.1,0-0.2-0.1-0.2-0.1c-2.8-0.9-5.8-0.5-8.2,1.1l-96,63.6c-6.4,4.2-5.4,13.9,1.7,16.7
		c0.1,0,0.1,0.1,0.2,0.1c2.9,1.1,6.2,0.8,8.8-0.9l96-63.6C741.1,46.3,739.8,36.3,732.3,33.8z"/>
	<path class="st1" d="M721.8-75.2C721.9-75.2,721.9-75.2,721.8-75.2c3.1-0.3,5.3-3,4.8-6l-14.2-82.6c-0.5-2.6-2.8-4.5-5.5-4.3
		c-5.5,0.4-10.9,1-16.3,1.6c-3.3,0.4-5.4,3.8-4.2,6.9l30.1,81C717.4-76.4,719.5-75,721.8-75.2z"/>
	<path class="st1" d="M773.5-74.3c0,0,0.1,0,0.1,0c3.4,0.3,6.5-2,7.2-5.3l16.2-78.9c0.8-3.9-1.9-7.6-5.9-8c-2-0.2-4-0.4-6-0.6
		c-3.6-0.4-6.8,2.2-7.3,5.8l-10.4,79.5C766.9-78,769.7-74.6,773.5-74.3z"/>
	<path class="st1" d="M705.5-73C705.5-73,705.6-73,705.5-73c2.4-0.4,3.8-2.9,3-5.1l-31-83.4c-0.6-1.7-2.4-2.7-4.2-2.4
		c-4.7,0.8-9.3,1.7-13.8,2.6c-2.5,0.5-3.8,3.3-2.6,5.6L701.5-75C702.3-73.5,703.9-72.7,705.5-73z"/>
	<path class="st1" d="M754.9-75.5C754.9-75.5,755-75.5,754.9-75.5c2.2,0.1,4.1-1.5,4.4-3.6l11.1-84.8c0.3-2.4-1.5-4.5-3.8-4.7
		c-4.2-0.3-8.3-0.5-12.3-0.6c-2.4-0.1-4.3,1.8-4.3,4.2l0.9,85.4C750.9-77.4,752.7-75.6,754.9-75.5z"/>
	<path class="st1" d="M781.6,202.7c0,0.4-0.2,0.8-0.2,1.2c-0.1,3.6,2.8,6.6,6.4,6.6l128.9-2c3.3-0.1,6.1-2.7,6.3-6
		c0.2-2.7,0.2-5.4,0.2-8c0-3-0.1-5.9-0.3-8.9c-0.2-3.7-3.5-6.5-7.2-6L787,196.1C783.7,196.5,781.6,199.3,781.6,202.7
		C781.6,202.6,781.6,202.7,781.6,202.7z"/>
	<path class="st1" d="M689.2-69C689.2-69,689.3-69,689.2-69c3-1,4.4-4.4,2.9-7.1l-43.6-78.9c-1.1-2-3.4-3-5.6-2.4
		c-3.3,0.9-6.5,1.8-9.7,2.8c-3.2,1-4.5,4.8-2.6,7.5l53,76.2C684.9-69,687.1-68.3,689.2-69z"/>
	<path class="st1" d="M649.6-27.2c0-1,0.3-2,0.4-3c0.2-2.7-1.5-5.1-4.1-5.6L522.3-60c-2.6-0.5-5.1,1-6,3.5
		c-4.2,12.4-6.4,25.5-6.4,39.1c0,2.7,0.1,5.3,0.3,7.9c0.2,3,3,5.2,6,4.8l129.2-17.1C647.9-22.1,649.6-24.4,649.6-27.2
		C649.6-27.2,649.6-27.2,649.6-27.2z"/>
	<path class="st1" d="M734.8-79.3c0.3,2,2,3.3,4,3.3c0.2,0,0.8,0,0.8,0v0.1c2,0,3.8-1.8,3.8-3.9c0,0-0.9-72.5-1-87.3
		c0-1.5-1.3-2.6-2.7-2.6c-4,0.1-11.4,0.3-15.6,0.5c-2.4,0.1-4.2,2.3-3.8,4.6L734.8-79.3z"/>
	<path class="st1" d="M863.9-147.5l-29.4,74.9c-1.8,4.6,0.7,9.7,5.4,11.1c0.1,0,0.1,0,0.2,0c4,1.2,8.3-0.8,10-4.6l33.4-74
		c2.2-4.8-0.6-10.5-5.8-11.6c-1.4-0.3-2.8-0.6-4.2-0.9C869.5-153.5,865.4-151.3,863.9-147.5z"/>
	<path class="st1" d="M770.4,231.1C770.4,231.1,770.4,231.1,770.4,231.1c-2.4,2.7-1.6,6.9,1.7,8.4l105,49.1c2,0.9,4.4,0.5,6-1
		c7.4-7.2,13.7-14.8,19-22.8c2.1-3.1,0.4-7.3-3.3-8.2l-123.3-27.2C773.6,229,771.7,229.6,770.4,231.1z"/>
	<path class="st1" d="M777.2,184.6c0,0,0,0.1,0.1,0.1c1.3,2.7,4.2,4.3,7.2,4l129.2-16.6c4.1-0.5,6.9-4.6,5.9-8.6
		c-1.9-7.9-4.7-15.4-8.2-22.5c-1.5-3.1-5-4.5-8.3-3.5L781.4,175C777.4,176.2,775.3,180.8,777.2,184.6z"/>
	<path class="st1" d="M748.4,158C748.4,158,748.4,158.1,748.4,158c0.9,0.5,2,0.6,2.9,0.2L879,106.6c2.3-0.9,2.8-3.9,0.9-5.5
		c-4.6-4.1-9.7-8-15.1-11.8c-1-0.7-2.4-0.8-3.5-0.2l-113,63.1C746.1,153.6,746.2,156.8,748.4,158z"/>
	<path class="st1" d="M730.1,149.3c0.1,0,0.1,0.1,0.2,0.1c2.7,1.1,5.7,1,8.3-0.5l102.7-57.4c6.6-3.7,6.5-13.1-0.2-16.7
		c-3.1-1.7-6.3-3.3-9.5-4.9c-3-1.5-6.6-1.3-9.5,0.6l-93.6,62.1C722.3,136.9,723.2,146.4,730.1,149.3z"/>
	<path class="st1" d="M765,169.3C765,169.3,765.1,169.3,765,169.3c1.4,1.3,3.3,1.6,5.1,1.1L897.6,131c3.5-1.1,4.8-5.3,2.7-8.2
		c-2.4-3.3-5-6.4-7.9-9.5c-1.5-1.7-3.8-2.2-5.9-1.4l-120,48.5C762.8,161.9,762,166.7,765,169.3z"/>
	<path class="st1" d="M632.8,253.7c0,0-0.1,0-0.1,0c-3.4-0.5-6.6,1.8-7.3,5.1L608,339.1c-0.8,3.8,1.8,7.5,5.7,8
		c2.9,0.3,5.8,0.6,8.6,0.9c3.6,0.4,6.8-2.2,7.2-5.8l9-81.2C638.9,257.4,636.4,254.2,632.8,253.7z"/>
	<path class="st1" d="M738.7,250C738.7,250.1,738.6,250.1,738.7,250c-2.1,0.7-2.9,3.2-1.6,4.9l57.9,78.5c0.8,1.1,2.2,1.6,3.5,1.2
		c11.1-3.4,21.5-7.3,31.1-11.7c2.2-1,2.6-4,0.6-5.5l-88.6-67C740.8,249.9,739.7,249.7,738.7,250z"/>
	<path class="st1" d="M755.8,242.7c-0.1,0.1-0.3,0.1-0.4,0.2c-3,1.7-3.4,5.9-0.6,8l84.8,64.1c1.5,1.1,3.5,1.3,5.2,0.4
		c8.4-4.6,16.1-9.6,23.1-14.9c2.8-2.2,2.3-6.6-0.9-8.1l-106.8-49.9C758.8,241.8,757.2,241.9,755.8,242.7z"/>
	<path class="st1" d="M723.9,253.8C723.9,253.8,723.9,253.8,723.9,253.8c-2.3,0.4-3.7,2.7-3,4.9l25.3,84.1c0.5,1.8,2.4,3,4.3,2.7
		c11.4-1.8,22.2-4,32.5-6.5c2.7-0.7,3.8-3.8,2.2-6l-57.3-77.7C726.8,254.1,725.4,253.5,723.9,253.8z"/>
	<path class="st1" d="M737.1,339.5L713.5,261c-0.9-3-3.9-5-7-4.7c0,0-0.1,0-0.1,0c-3.4,0.3-6,3.2-6,6.7l0.6,80.4
		c0,3.8,3.3,6.8,7.1,6.6c8-0.5,15.8-1.1,23.4-2C735.6,347.6,738.3,343.5,737.1,339.5z"/>
	<path class="st1" d="M862.4-53.9c0,0,0.1,0,0.1,0c3.1,1.2,6.5,0.3,8.7-2.1l61.9-68.9c3.9-4.3,2-11.1-3.5-12.9
		c-8-2.5-17.4-5.3-27.8-8c-3.8-1-7.7,0.9-9.3,4.4L858-64.6C856.1-60.4,858.1-55.5,862.4-53.9z"/>
	<path class="st1" d="M692.7,263.5c0-3.4-2.8-6.2-6.3-6.2c-0.9,0-1.8,0-2.7,0c-2.9,0-5.8,0-8.7-0.1c-3.5-0.1-6.4,2.8-6.4,6.3
		l0.6,81.3c0,3.4,2.8,6.2,6.2,6.2c0,0,0,0,0.1,0c3.9,0,7.8-0.1,11.7-0.2c3.4-0.1,6.1-2.9,6.1-6.3L692.7,263.5z"/>
	<path class="st1" d="M777.8,219.5C777.8,219.5,777.8,219.5,777.8,219.5c-0.5,1.2,0.2,2.5,1.4,2.8l129.2,28.5
		c0.9,0.2,1.9-0.2,2.3-1.1c4.8-10,8.2-20.4,10.3-31.2c0.2-1.3-0.8-2.4-2-2.4l-139.3,2.1C778.8,218.3,778.1,218.8,777.8,219.5z"/>
	<path class="st1" d="M534.5,227.8c0,0-0.1,0-0.1,0c-2.7-1.1-5.8-0.4-7.7,1.8l-67.7,76.7c-3.2,3.7-1.7,9.4,2.9,11
		c8.2,2.9,18.7,5.9,30.7,8.9c3.2,0.8,6.6-0.8,7.9-3.9l37.8-85.3C539.8,233.4,538.1,229.2,534.5,227.8z"/>
	<path class="st1" d="M707.5,137.4l97.6-64.7c5.7-3.8,4.8-12.5-1.6-15c-2.8-1.1-5.7-2.2-8.7-3.3c-2.5-0.9-5.4-0.6-7.6,0.9L689,120.3
		c-6,4-4.7,13.1,2.2,15.2c3.2,1,6.4,2,9,2.8C702.7,139.2,705.4,138.8,707.5,137.4z"/>
	<path class="st1" d="M552.8,67.3l113.1-55.9c2.9-1.4,3.2-5.3,0.7-7.3c-0.1-0.1-0.2-0.1-0.3-0.2c-1.1-0.9-2.6-1.2-4-0.8L534.7,42.7
		c-2.9,0.9-4,4.3-2.2,6.7c4.5,6,9.7,11.7,15.5,17.2C549.3,67.8,551.2,68.1,552.8,67.3z"/>
	<path class="st1" d="M673.7-62.3C673.8-62.3,673.8-62.3,673.7-62.3c2.5-1.4,3.2-4.6,1.6-6.9l-54-77.6c-1.3-1.8-3.6-2.5-5.6-1.8
		c-4.1,1.6-8.1,3.2-11.9,5c-3,1.3-3.8,5.2-1.6,7.6l65.6,72.7C669.3-61.5,671.8-61.1,673.7-62.3z"/>
	<path class="st1" d="M654.5-44C654.5-44,654.5-44,654.5-44c0.8-1.4,0.3-3.2-1.1-3.9l-103.6-57.3c-1.1-0.6-2.5-0.4-3.4,0.5
		c-9.9,10.2-17.9,21.3-23.8,33.2c-0.8,1.7,0.1,3.7,2,4.1l126.9,24.9C652.7-42.3,653.9-42.9,654.5-44z"/>
	<path class="st1" d="M653.9-10.5c0,0,0-0.1-0.1-0.1c-1.3-2.5-4-4-6.8-3.6l-128,16.9c-4,0.5-6.6,4.4-5.6,8.3
		c2,7.6,4.9,14.9,8.5,21.9c1.5,2.8,4.8,4.2,7.9,3.2L650-1.1C653.9-2.4,655.8-6.8,653.9-10.5z"/>
	<path class="st1" d="M662.2-53.9C662.3-53.9,662.3-53.9,662.2-53.9c1.1-1,1.2-2.7,0.2-3.7l-70.3-78c-0.8-0.9-2.2-1.1-3.2-0.6
		c-12,6.5-22.8,13.8-32.2,21.9c-1.4,1.2-1.2,3.5,0.4,4.4l102,56.4C660.2-52.9,661.4-53.1,662.2-53.9z"/>
	<path class="st1" d="M538.9,327.7l25.9-79.2c1.6-5-1.1-10.3-6-11.9c-0.8-0.3-1.6-0.5-2.3-0.8c-4.6-1.5-9.6,0.7-11.6,5.2l-34.4,77.7
		c-2.4,5.5,0.8,11.8,6.7,13.1c3.6,0.7,7.2,1.5,10.9,2.2C532.8,334.9,537.4,332.2,538.9,327.7z"/>
	<path class="st1" d="M610.5,250c-0.1,0-0.1,0-0.2,0c-4.2-0.8-8.4,1.6-9.7,5.7l-25,76.4c-1.7,5.1,1.7,10.4,6.9,11.1
		c2.8,0.4,5.6,0.8,8.5,1.2c4.4,0.6,8.5-2.3,9.4-6.6l16.8-77.5C618.2,255.5,615.2,250.9,610.5,250z"/>
	<path class="st1" d="M584.8,244.2c-0.1,0-0.1,0-0.2-0.1c-5.3-1.4-10.7,1.6-12.4,6.8l-24.5,74.8c-2,6,1.9,12.3,8.1,13.4
		c0.1,0,0.1,0,0.2,0c5,0.8,9.9-2.1,11.5-7l24.5-74.7C593.8,251.7,590.5,245.7,584.8,244.2z"/>
	<path class="st1" d="M654.2,256.1c0,0-0.1,0-0.1,0c-4-0.3-7.5,2.6-8,6.5l-8.7,79c-0.5,4.2,2.7,7.9,6.8,8.2c3.3,0.2,6.5,0.4,9.6,0.6
		c4.2,0.2,7.8-3.2,7.7-7.4l-0.6-79.5C660.9,259.6,658,256.4,654.2,256.1z"/>
	<path class="st1" d="M683.5,14.5c0,0-0.1,0-0.1-0.1c-1.9-1-4.2-1-6.1,0l-111,54.8c-4.6,2.3-5.2,8.6-1,11.6
		c4.7,3.4,9.6,6.7,14.7,9.9c2.2,1.4,5.1,1.3,7.3-0.2l97-64.3C688.6,23.4,688.1,16.9,683.5,14.5z"/>
</g>
<text id="ilter_Systems_SHG_2_" transform="matrix(1 0 0 1 304.912 353.1266)" class="st6 st3 st4">ilter</text>
<g class="st0">
	<g class="st1">
		<g>
			
				<rect x="851.4" y="-105.2" transform="matrix(0.8091 0.5876 -0.5876 0.8091 129.3798 -511.6826)" class="st7" width="2" height="97"/>
			
				<rect x="911.1" y="-186.7" transform="matrix(0.8091 0.5876 -0.5876 0.8091 92.8551 -562.3616)" class="st7" width="2" height="97"/>
		</g>
		<g>
			
				<rect x="901.5" y="-219.2" transform="matrix(0.8594 0.5114 -0.5114 0.8594 39.6478 -485.4948)" class="st7" width="2" height="97"/>
			
				<rect x="827.7" y="-93.3" transform="matrix(0.8594 0.5114 -0.5114 0.8594 93.6371 -430.0423)" class="st7" width="2" height="97"/>
			
				<rect x="864.6" y="-128.6" transform="matrix(0.8594 0.5114 -0.5114 0.8594 66.7312 -457.7606)" class="st7" width="2" height="42"/>
		</g>
		<g>
			
				<rect x="818.4" y="-112.3" transform="matrix(0.9101 0.4144 -0.4144 0.9101 47.2213 -345.2794)" class="st7" width="2" height="97"/>
			
				<rect x="860.7" y="-204.2" transform="matrix(0.9101 0.4144 -0.4144 0.9101 12.9627 -371.0562)" class="st7" width="2" height="97"/>
		</g>
		<g>
			
				<rect x="844.8" y="-234" transform="matrix(0.9441 0.3296 -0.3296 0.9441 -13.876 -289.168)" class="st7" width="2" height="97"/>
			
				<rect x="797.5" y="-95.9" transform="matrix(0.9441 0.3296 -0.3296 0.9441 29.0013 -265.8827)" class="st7" width="2" height="97"/>
			
				<rect x="821.2" y="-137.3" transform="matrix(0.9441 0.3296 -0.3296 0.9441 7.6175 -277.5372)" class="st7" width="2" height="42"/>
		</g>
		<g>
			
				<rect x="794.7" y="-114.3" transform="matrix(0.9963 8.618840e-002 -8.618840e-002 0.9963 -2.7071 -68.8265)" class="st7" width="2" height="97"/>
			
				<rect x="803.9" y="-215" transform="matrix(0.9963 8.618840e-002 -8.618840e-002 0.9963 -11.3521 -69.9884)" class="st7" width="2" height="97"/>
		</g>
		<g>
			
				<rect x="778.9" y="-237.8" transform="matrix(1 -5.037100e-003 5.037100e-003 1 0.9632 3.9258)" class="st7" width="2" height="97"/>
			
				<rect x="780.5" y="-91.8" transform="matrix(1 -5.037100e-003 5.037100e-003 1 0.2283 3.9361)" class="st7" width="2" height="97"/>
			
				<rect x="779.8" y="-137.2" transform="matrix(1 -5.037100e-003 5.037100e-003 1 0.5951 3.9315)" class="st7" width="2" height="42"/>
		</g>
		<g>
			
				<rect x="766.5" y="-117.9" transform="matrix(0.9838 -0.1793 0.1793 0.9838 24.8778 136.4949)" class="st7" width="2" height="97"/>
			
				<rect x="748.8" y="-217.4" transform="matrix(0.9838 -0.1793 0.1793 0.9838 42.4402 131.7049)" class="st7" width="2" height="97"/>
		</g>
		<g>
			
				<rect x="718.7" y="-232.8" transform="matrix(0.9633 -0.2683 0.2683 0.9633 75.8384 186.3206)" class="st7" width="2" height="97"/>
			
				<rect x="758.7" y="-92.5" transform="matrix(0.9633 -0.2683 0.2683 0.9633 39.6584 202.2097)" class="st7" width="2" height="97"/>
			
				<rect x="738.8" y="-135.1" transform="matrix(0.9633 -0.2683 0.2683 0.9633 57.7287 194.3062)" class="st7" width="2" height="42"/>
		</g>
		<g>
			
				<rect x="733.5" y="-120.1" transform="matrix(0.9029 -0.4299 0.4299 0.9029 102.1055 308.8097)" class="st7" width="2" height="97"/>
			
				<rect x="690.4" y="-211.5" transform="matrix(0.9029 -0.4299 0.4299 0.9029 137.2437 281.4028)" class="st7" width="2" height="97"/>
		</g>
		<g>
			
				<rect x="657.3" y="-218.6" transform="matrix(0.8599 -0.5105 0.5105 0.8599 179.0356 312.2164)" class="st7" width="2" height="97"/>
			
				<rect x="732.6" y="-93.6" transform="matrix(0.8599 -0.5105 0.5105 0.8599 125.7725 368.1613)" class="st7" width="2" height="97"/>
			
				<rect x="695.1" y="-128.5" transform="matrix(0.8599 -0.5105 0.5105 0.8599 152.3995 340.2777)" class="st7" width="2" height="42"/>
		</g>
		<g>
			
				<rect x="714.1" y="-100.8" transform="matrix(0.7631 -0.6463 0.6463 0.7631 203.2114 449.7101)" class="st7" width="2" height="97"/>
			
				<rect x="649" y="-178.3" transform="matrix(0.7631 -0.6463 0.6463 0.7631 237.8493 389.3477)" class="st7" width="2" height="97"/>
		</g>
		<g>
			
				<rect x="615.2" y="-176.6" transform="matrix(0.701 -0.7132 0.7132 0.701 275.6212 401.1775)" class="st7" width="2" height="97"/>
			<rect x="720" y="-75" transform="matrix(0.701 -0.7132 0.7132 0.701 234.4541 506.2492)" class="st7" width="2" height="97"/>
			<rect x="667.8" y="-98.3" transform="matrix(0.701 -0.7132 0.7132 0.701 255.0805 453.836)" class="st7" width="2" height="42"/>
		</g>
		<g>
			<rect x="684" y="-95.1" transform="matrix(0.4765 -0.8792 0.8792 0.4765 399.5454 577.874)" class="st7" width="2" height="97"/>
			
				<rect x="595.4" y="-143.6" transform="matrix(0.4765 -0.8792 0.8792 0.4765 395.8047 474.4858)" class="st7" width="2" height="97"/>
		</g>
		<g>
			
				<rect x="564.5" y="-129.8" transform="matrix(0.3944 -0.919 0.919 0.3944 417.191 470.3921)" class="st7" width="2" height="97"/>
			
				<rect x="698.9" y="-73.1" transform="matrix(0.3944 -0.919 0.919 0.3944 446.5297 628.2964)" class="st7" width="2" height="97"/>
			<rect x="631.9" y="-74" transform="matrix(0.3944 -0.919 0.919 0.3944 432.0045 549.4602)" class="st7" width="2" height="42"/>
		</g>
		<g>
			
				<rect x="648.3" y="-81.1" transform="matrix(2.672600e-002 -0.9996 0.9996 2.672600e-002 664.5298 617.3117)" class="st7" width="2" height="97"/>
			
				<rect x="547.2" y="-84.2" transform="matrix(2.672600e-002 -0.9996 0.9996 2.672600e-002 569.2891 513.246)" class="st7" width="2" height="97"/>
		</g>
		<g>
			
				<rect x="525.9" y="-57.9" transform="matrix(-6.455839e-002 -0.9979 0.9979 -6.455839e-002 570.3698 515.8094)" class="st7" width="2" height="97"/>
			
				<rect x="671.5" y="-68.3" transform="matrix(-6.455839e-002 -0.9979 0.9979 -6.455839e-002 735.6595 650.0498)" class="st7" width="2" height="97"/>
			
				<rect x="598.8" y="-35.7" transform="matrix(-6.455839e-002 -0.9979 0.9979 -6.455839e-002 653.2598 582.9229)" class="st7" width="2" height="42"/>
		</g>
		<g>
			
				<rect x="656.8" y="-55.3" transform="matrix(-0.2833 -0.959 0.959 -0.2833 850.6943 622.1672)" class="st7" width="2" height="97"/>
			
				<rect x="559.7" y="-27" transform="matrix(-0.2833 -0.959 0.959 -0.2833 699.0151 565.3043)" class="st7" width="2" height="97"/>
		</g>
		<g>
			
				<rect x="547.6" y="4.6" transform="matrix(-0.3696 -0.9292 0.9292 -0.3696 702.0979 582.44)" class="st7" width="2" height="97"/>
			
				<rect x="682.9" y="-50.2" transform="matrix(-0.3696 -0.9292 0.9292 -0.3696 938.2581 633.0557)" class="st7" width="2" height="97"/>
			
				<rect x="615.3" y="4.5" transform="matrix(-0.3696 -0.9292 0.9292 -0.3696 820.4223 607.615)" class="st7" width="2" height="42"/>
		</g>
		<g>
			
				<rect x="677.9" y="-32.2" transform="matrix(-0.513 -0.8584 0.8584 -0.513 1013.1482 607.4009)" class="st7" width="2" height="97"/>
			
				<rect x="590.9" y="19.3" transform="matrix(-0.513 -0.8584 0.8584 -0.513 837.2916 610.6453)" class="st7" width="2" height="97"/>
		</g>
		<g>
			<rect x="587" y="52.9" transform="matrix(-0.5891 -0.808 0.808 -0.5891 852.4677 636.2839)" class="st7" width="2" height="97"/>
			
				<rect x="704.4" y="-33.8" transform="matrix(-0.5891 -0.808 0.808 -0.5891 1109.0536 593.2987)" class="st7" width="2" height="97"/>
			
				<rect x="645.7" y="36.9" transform="matrix(-0.5891 -0.808 0.808 -0.5891 980.9526 614.5613)" class="st7" width="2" height="42"/>
		</g>
	</g>
	<g class="st1">
		<g>
			
				<rect x="571.8" y="186.2" transform="matrix(-0.7778 -0.6285 0.6285 -0.7778 870.821 777.2396)" class="st7" width="2" height="97"/>
			
				<rect x="507.9" y="264.6" transform="matrix(-0.7778 -0.6285 0.6285 -0.7778 707.9995 876.4348)" class="st7" width="2" height="97"/>
		</g>
		<g>
			
				<rect x="515.9" y="297.4" transform="matrix(-0.8319 -0.555 0.555 -0.8319 754.905 920.5878)" class="st7" width="2" height="97"/>
			
				<rect x="596.1" y="175.5" transform="matrix(-0.8319 -0.555 0.555 -0.8319 969.4924 741.773)" class="st7" width="2" height="97"/>
			
				<rect x="556" y="263.8" transform="matrix(-0.8319 -0.555 0.555 -0.8319 862.2521 830.8632)" class="st7" width="2" height="42"/>
		</g>
		<g>
			
				<rect x="604.4" y="195" transform="matrix(-0.8875 -0.4607 0.4607 -0.8875 1030.4723 738.5378)" class="st7" width="2" height="97"/>
			
				<rect x="557.4" y="284.6" transform="matrix(-0.8875 -0.4607 0.4607 -0.8875 900.5846 885.9277)" class="st7" width="2" height="97"/>
		</g>
		<g>
			
				<rect x="571.8" y="315.2" transform="matrix(-0.9259 -0.3778 0.3778 -0.9259 965.684 916.8348)" class="st7" width="2" height="97"/>
			
				<rect x="626.1" y="179.7" transform="matrix(-0.9259 -0.3778 0.3778 -0.9259 1121.396 676.4612)" class="st7" width="2" height="97"/>
			
				<rect x="598.9" y="274.8" transform="matrix(-0.9259 -0.3778 0.3778 -0.9259 1043.4957 796.3211)" class="st7" width="2" height="42"/>
		</g>
		<g>
			
				<rect x="627.9" y="198.2" transform="matrix(-0.9905 -0.1374 0.1374 -0.9905 1217.9778 577.4459)" class="st7" width="2" height="97"/>
			
				<rect x="613.6" y="298.3" transform="matrix(-0.9905 -0.1374 0.1374 -0.9905 1175.7427 774.7177)" class="st7" width="2" height="97"/>
		</g>
		<g>
			
				<rect x="637.4" y="322.3" transform="matrix(-0.9989 -4.648890e-002 4.648890e-002 -0.9989 1258.8601 770.959)" class="st7" width="2" height="97"/>
			
				<rect x="643.2" y="176.5" transform="matrix(-0.9989 -4.648890e-002 4.648890e-002 -0.9989 1277.3387 479.7622)" class="st7" width="2" height="97"/>
			
				<rect x="640.2" y="276.8" transform="matrix(-0.9989 -4.648890e-002 4.648890e-002 -0.9989 1267.8972 625.0923)" class="st7" width="2" height="42"/>
		</g>
		<g>
			
				<rect x="655.9" y="203.2" transform="matrix(-0.9917 0.1284 -0.1284 -0.9917 1340.7041 417.0634)" class="st7" width="2" height="97"/>
			
				<rect x="668.5" y="303.6" transform="matrix(-0.9917 0.1284 -0.1284 -0.9917 1378.6094 615.2752)" class="st7" width="2" height="97"/>
		</g>
		<g>
			
				<rect x="697.8" y="320.5" transform="matrix(-0.9759 0.2183 -0.2183 -0.9759 1461.22 576.5921)" class="st7" width="2" height="97"/>
			
				<rect x="665" y="178.3" transform="matrix(-0.9759 0.2183 -0.2183 -0.9759 1365.4359 302.765)" class="st7" width="2" height="97"/>
			
				<rect x="681.2" y="276.8" transform="matrix(-0.9759 0.2183 -0.2183 -0.9759 1413.0388 439.5112)" class="st7" width="2" height="42"/>
		</g>
		<g>
			
				<rect x="688.8" y="207.1" transform="matrix(-0.9238 0.3828 -0.3828 -0.9238 1424.823 227.7667)" class="st7" width="2" height="97"/>
			
				<rect x="727.1" y="300.7" transform="matrix(-0.9238 0.3828 -0.3828 -0.9238 1534.3588 393.1097)" class="st7" width="2" height="97"/>
		</g>
		<g>
			
				<rect x="759.8" y="309.4" transform="matrix(-0.8851 0.4655 -0.4655 -0.8851 1600.6849 320.5989)" class="st7" width="2" height="97"/>
			
				<rect x="691" y="180.7" transform="matrix(-0.8851 0.4655 -0.4655 -0.8851 1411.171 109.9519)" class="st7" width="2" height="97"/>
			
				<rect x="725.2" y="272.5" transform="matrix(-0.8851 0.4655 -0.4655 -0.8851 1505.6044 215.2335)" class="st7" width="2" height="42"/>
		</g>
		<g>
			
				<rect x="722.9" y="209" transform="matrix(-0.7954 0.6061 -0.6061 -0.7954 1455.678 23.5533)" class="st7" width="2" height="97"/>
			
				<rect x="783.8" y="289.7" transform="matrix(-0.7954 0.6061 -0.6061 -0.7954 1613.999 131.4653)" class="st7" width="2" height="97"/>
		</g>
		<g>
			
				<rect x="829" y="292" transform="matrix(-0.7368 0.6761 -0.6761 -0.7368 1671.6624 30.1865)" class="st7" width="2" height="97"/>
			
				<rect x="729.6" y="185.1" transform="matrix(-0.7368 0.6761 -0.6761 -0.7368 1426.8447 -88.295)" class="st7" width="2" height="97"/>
			
				<rect x="779.1" y="266" transform="matrix(-0.7368 0.6761 -0.6761 -0.7368 1548.9507 -28.9741)" class="st7" width="2" height="42"/>
		</g>
		<g>
			
				<rect x="764.2" y="201.6" transform="matrix(-0.5212 0.8534 -0.8534 -0.5212 1377.4857 -272.6078)" class="st7" width="2" height="97"/>
			
				<rect x="850.3" y="254.7" transform="matrix(-0.5212 0.8534 -0.8534 -0.5212 1553.6996 -265.3528)" class="st7" width="2" height="97"/>
		</g>
		<g>
			
				<rect x="887.8" y="242.6" transform="matrix(-0.4412 0.8974 -0.8974 -0.4412 1542.1393 -377.9965)" class="st7" width="2" height="97"/>
			
				<rect x="756.4" y="179.1" transform="matrix(-0.4412 0.8974 -0.8974 -0.4412 1295.785 -351.6871)" class="st7" width="2" height="97"/>
			
				<rect x="821.9" y="238.4" transform="matrix(-0.4412 0.8974 -0.8974 -0.4412 1418.7666 -364.634)" class="st7" width="2" height="42"/>
		</g>
		<g>
			
				<rect x="789.4" y="175.5" transform="matrix(-0.1489 0.9889 -0.9889 -0.1489 1129.6018 -524.3205)" class="st7" width="2" height="97"/>
			
				<rect x="889.4" y="190.9" transform="matrix(-0.1489 0.9889 -0.9889 -0.1489 1259.6925 -605.3586)" class="st7" width="2" height="97"/>
		</g>
		<g>
			
				<rect x="924.3" y="153.6" transform="matrix(1.306030e-002 0.9999 -0.9999 1.306030e-002 1115.3254 -725.7963)" class="st7" width="2" height="97"/>
			
				<rect x="778.4" y="156.4" transform="matrix(1.306030e-002 0.9999 -0.9999 1.306030e-002 974.1653 -577.105)" class="st7" width="2" height="97"/>
			
				<rect x="851.3" y="182.6" transform="matrix(1.306030e-002 0.9999 -0.9999 1.306030e-002 1044.7336 -651.2148)" class="st7" width="2" height="42"/>
		</g>
		<g>
			
				<rect x="798" y="139.6" transform="matrix(0.2335 0.9723 -0.9723 0.2335 795.3147 -632.6752)" class="st7" width="2" height="97"/>
			
				<rect x="896.4" y="116.4" transform="matrix(0.2335 0.9723 -0.9723 0.2335 848.1821 -746.1517)" class="st7" width="2" height="97"/>
		</g>
		<g>
			
				<rect x="906.5" y="84.7" transform="matrix(0.3212 0.947 -0.947 0.3212 742.1187 -768.9897)" class="st7" width="2" height="97"/>
			
				<rect x="768.6" y="132.5" transform="matrix(0.3212 0.947 -0.947 0.3212 693.752 -605.9869)" class="st7" width="2" height="97"/>
			
				<rect x="837.5" y="136.2" transform="matrix(0.3212 0.947 -0.947 0.3212 718.0154 -687.3096)" class="st7" width="2" height="42"/>
		</g>
		<g>
			
				<rect x="773.6" y="110.5" transform="matrix(0.4681 0.8837 -0.8837 0.4681 552.5397 -599.9532)" class="st7" width="2" height="97"/>
			
				<rect x="863.2" y="63.5" transform="matrix(0.4681 0.8837 -0.8837 0.4681 558.6753 -704.0607)" class="st7" width="2" height="97"/>
		</g>
		<g>
			
				<rect x="750.3" y="84.9" transform="matrix(0.6362 0.7716 -0.7716 0.6362 376.2887 -531.1334)" class="st7" width="2" height="97"/>
			
				<rect x="828.6" y="20.9" transform="matrix(0.6362 0.7716 -0.7716 0.6362 355.3908 -614.8148)" class="st7" width="2" height="97"/>
		</g>
		<g>
			<rect x="844" y="41.9" transform="matrix(0.5467 0.8373 -0.8373 0.5467 458.7175 -666.517)" class="st7" width="2" height="97"/>
			
				<rect x="722.3" y="122.5" transform="matrix(0.5467 0.8373 -0.8373 0.5467 471.0218 -528.1191)" class="st7" width="2" height="97"/>
			
				<rect x="783.1" y="109.9" transform="matrix(0.5467 0.8373 -0.8373 0.5467 464.9842 -597.2064)" class="st7" width="2" height="42"/>
		</g>
		<g>
			
				<rect x="809.6" y="-5" transform="matrix(0.7118 0.7024 -0.7024 0.7118 264.1501 -556.8547)" class="st7" width="2" height="97"/>
			
				<rect x="707.8" y="99.5" transform="matrix(0.7118 0.7024 -0.7024 0.7118 308.2183 -455.2033)" class="st7" width="2" height="97"/>
			
				<rect x="758.7" y="74.9" transform="matrix(0.7118 0.7024 -0.7024 0.7118 286.299 -505.9732)" class="st7" width="2" height="42"/>
		</g>
		<g>
			
				<rect x="698.9" y="76.1" transform="matrix(0.7321 0.6812 -0.6812 0.7321 272.4297 -443.4265)" class="st7" width="2" height="97"/>
			
				<rect x="768.1" y="2.4" transform="matrix(0.7321 0.6812 -0.6812 0.7321 240.7391 -510.3178)" class="st7" width="2" height="97"/>
		</g>
		<g>
			
				<rect x="642" y="53.5" transform="matrix(0.7321 0.6812 -0.6812 0.7321 241.7415 -410.6972)" class="st7" width="2" height="97"/>
			
				<rect x="711.2" y="-20.3" transform="matrix(0.7321 0.6812 -0.6812 0.7321 210.0509 -477.5884)" class="st7" width="2" height="97"/>
		</g>
		<g>
			
				<rect x="747" y="-24.8" transform="matrix(0.8002 0.5997 -0.5997 0.8002 163.6322 -443.8591)" class="st7" width="2" height="97"/>
			
				<rect x="660.2" y="92.5" transform="matrix(0.8002 0.5997 -0.5997 0.8002 216.6628 -368.381)" class="st7" width="2" height="97"/>
			
				<rect x="703.6" y="61.5" transform="matrix(0.8002 0.5997 -0.5997 0.8002 190.2505 -406.0938)" class="st7" width="2" height="42"/>
		</g>
	</g>
</g>
<g>
	<path class="st7" d="M718.6-71.3c0.5-0.1,0.9-0.1,1.4-0.2c5.9-0.9,9.7-6.6,8.4-12.4l-17.1-72.4c-1.2-5-6-8.4-11.1-7.8
		c-4.6,0.6-9.2,1.2-13.7,2c-6.4,1.1-10.2,7.9-7.7,13.9l28.8,70.7C709.4-73.2,713.9-70.6,718.6-71.3z"/>
	<path class="st7" d="M713.6-156.5l18.2,77.3c0.9,3.6,4.1,6.1,7.8,6c2.1-0.1,4.3-0.1,6.5-0.1c0,0,0.1,0,0.1,0c4.6,0,8.2-3.9,7.8-8.5
		l-7.4-78c-0.4-4.1-3.9-7.2-8-7.1c-6.1,0.1-12.1,0.4-18,0.8C715.8-165.8,712.5-161.2,713.6-156.5z"/>
	<path class="st7" d="M728.5,36.1l-91.6,67.7c-4.7,3.5-3.8,10.7,1.6,13c3.8,1.6,7.7,3.2,11.6,4.7c2.4,0.9,5.1,0.5,7.2-1l92.2-68.1
		c4.9-3.6,3.7-11.2-2.1-13.2c-4.1-1.4-8.1-2.8-11.9-4.1C733.1,34.2,730.5,34.6,728.5,36.1z"/>
	<path class="st7" d="M783.1-71.3c4.3,0.5,8.5,1,12.5,1.6c2.3,0.3,4.4-1.2,4.7-3.5l11.8-84.6c0.3-2.3-1.3-4.4-3.5-4.7
		c-8.2-1.1-16.3-2.1-24.3-2.8c-2.4-0.2-4.5,1.7-4.5,4.1l-0.3,85.7C779.4-73.3,781-71.5,783.1-71.3z"/>
	<path class="st7" d="M679.5,8.9c-1.7-1.3-3.3-2.5-4.8-3.8c-1-0.9-2.4-1.3-3.7-1.2L537.3,17.4c-3.2,0.3-5.2,3.6-4.1,6.6
		c2.8,7.9,6.5,15.3,11.1,22.4c1.1,1.8,3.2,2.6,5.3,2.1l128.1-30.9C681.7,16.7,682.8,11.4,679.5,8.9z"/>
	<path class="st7" d="M650.5-14.7c5.5,0.7,10.4-3.7,10.3-9.3c0-0.2,0-0.4,0-0.6c0-0.3,0-0.5,0-0.8L551.9-75.4
		c-4.5-2.1-9.9-0.2-12.1,4.3c-5,10-8.6,20.5-10.8,31.5c-1,5.2,2.6,10.3,7.9,10.9L650.5-14.7z"/>
	<path class="st7" d="M673.9-52.8c1-0.9,2-1.7,3.1-2.6c4.3-3.3,5.3-9.3,2.2-13.8l-47.4-69.6c-2.8-4.1-8.1-5.6-12.7-3.5
		c-9,4.1-17.5,8.6-25.3,13.6c-5.7,3.6-6.3,11.7-1.2,16.2l67.8,59.8C664.3-49.3,670.1-49.3,673.9-52.8z"/>
	<path class="st7" d="M694.4-65c1.2-0.5,2.5-1,3.8-1.4c5.4-1.9,8.2-7.9,6-13.3L675-151.4c-1.9-4.6-6.9-7.2-11.7-6
		c-7.5,1.8-14.7,3.9-21.6,6.3c-6.3,2.1-8.8,9.7-5.1,15.2l45.8,67.3C685-64.8,690-63.3,694.4-65z"/>
	<path class="st7" d="M536.7,15.1L659.2,2.8c4.9-0.5,7.8-5.8,5.5-10.2c0,0,0-0.1-0.1-0.1c-1-2.1-3.1-3.4-5.4-3.7L534.6-26.6
		c-4-0.5-7.7,2.5-7.9,6.6c-0.1,1.7-0.1,3.4-0.1,5.1c0,8.5,0.9,16.6,2.5,24.4C529.9,13.1,533.2,15.4,536.7,15.1z"/>
	<path class="st7" d="M663.4-37.9c0-0.1,0-0.1,0.1-0.2c1.6-3.9,0.6-8.4-2.6-11.1l-73.7-65c-3.7-3.2-9.2-3.3-12.9-0.1
		c-8.4,7.2-15.8,15-22.1,23.3c-3.8,5-2,12.2,3.7,14.9l94.3,43.3C655.3-30.5,661.3-32.8,663.4-37.9z"/>
	<path class="st7" d="M772.5,173.7C772.5,173.7,772.5,173.8,772.5,173.7c1.5,1.4,3.3,2.1,5.2,1.8l130.6-18.2
		c3.9-0.5,6.3-4.7,4.8-8.3c-2.2-5.4-4.8-10.7-7.9-15.7c-1.4-2.3-4.2-3.4-6.8-2.7l-123.3,33C770.6,164.7,769.1,170.4,772.5,173.7z"/>
	<path class="st7" d="M909.7,159.5l-121.2,16.9c-5.2,0.7-8.3,6.3-6.1,11c0.2,0.4,0.4,0.8,0.6,1.2c1.3,3,4.3,4.8,7.5,4.7l123.1-4.9
		c4.6-0.2,8.1-4.2,7.5-8.8c-0.6-4.9-1.5-9.6-2.6-14.2C917.5,161.5,913.7,158.9,909.7,159.5z"/>
	<path class="st7" d="M775.2,234.9c-0.3,0.4-0.7,0.8-1,1.1c-3.6,3.8-3.1,9.8,1,13l77.2,59.2c3,2.3,7.2,2.4,10.4,0.2
		c9.5-6.8,17.8-14.2,25-22.1c4.1-4.5,2.3-11.7-3.3-13.9l-99.5-39.8C781.5,231.2,777.6,232.2,775.2,234.9z"/>
	<path class="st7" d="M832.5-61.9c0.2,0.1,0.4,0.1,0.7,0.2c3.7,1,7.6-0.9,9-4.5l30.4-75.5c1.7-4.3-0.8-9.2-5.4-10.2
		c-4.5-1-9-2-13.7-2.9c-4-0.8-8,1.7-8.9,5.8l-17.5,78.2C826.3-66.9,828.6-63,832.5-61.9z"/>
	<path class="st7" d="M875.8-143.4l-31,76.9c-1.6,3.9,0.5,8.4,4.5,9.8c0.9,0.3,1.8,0.6,2.7,0.9c3.4,1.2,7.2-0.3,8.9-3.5l40.5-74.7
		c2.3-4.2,0-9.4-4.6-10.7c-4-1.1-8.1-2.1-12.4-3.2C880.8-148.7,877.2-146.8,875.8-143.4z"/>
	<path class="st7" d="M730.4,149.1c1.2,0.5,2.4,1,3.6,1.5c1.5,0.6,3.1,0.7,4.7,0.1l128.7-45.6c4.8-1.7,5.8-8.1,1.7-11.2
		c-6.8-5.1-14.2-10.1-22.3-14.8c-1.9-1.1-4.2-1.1-6.2-0.1l-110.8,58.3C724.9,140.1,725.3,147.1,730.4,149.1z"/>
	<path class="st7" d="M875.5,104.8l-118.8,42.1c-6.4,2.3-7.1,10.9-1.3,14.3c1,0.6,2,1.2,3,1.8c1.9,1.2,4.1,1.5,6.2,0.9L890,130.3
		c5.6-1.5,7.8-8.3,4-12.7c-3.2-3.8-6.7-7.5-10.4-11.1C881.5,104.4,878.3,103.8,875.5,104.8z"/>
	<path class="st7" d="M807.2-67.7c3.7,0.7,7.2,1.4,10.6,2.2c3,0.7,6-1.2,6.6-4.2l18.2-81.3c0.7-3.1-1.3-6.1-4.4-6.7
		c-5.9-1.1-11.8-2.1-17.8-3c-3.1-0.5-5.9,1.7-6.3,4.7l-11.5,82C802.3-71,804.3-68.3,807.2-67.7z"/>
	<path class="st7" d="M759.6,246.9c-1.7,0.9-3.5,1.8-5.4,2.7c-5.3,2.4-7,9.2-3.4,13.8l52.9,67.6c2.4,3.1,6.6,4.3,10.2,2.9
		c10.6-4,20.5-8.4,29.5-13.4c5.7-3.1,6.3-11.1,1.1-15l-75.2-57.7C766.6,245.6,762.7,245.2,759.6,246.9z"/>
	<path class="st7" d="M783.4,221.5c0,0,0,0.1,0,0.1c-1.4,3.8,0.4,8,4.1,9.4l104.1,41.7c3.2,1.3,6.9,0.2,8.8-2.7
		c6.5-9.8,11.6-20.2,15.1-31c1.5-4.4-1.6-9.1-6.2-9.5L791,216.8C787.7,216.4,784.6,218.4,783.4,221.5z"/>
	<path class="st7" d="M582,82.1l116-53.3c3.8-1.7,3.9-7.1,0.1-8.9c-1.6-0.8-3.2-1.6-4.7-2.4c-1.1-0.6-2.3-0.7-3.5-0.4L555.1,49.6
		c-3.5,0.8-5,5.1-2.7,7.9c6.9,8.6,15.1,16.5,24.5,24C578.3,82.6,580.3,82.9,582,82.1z"/>
	<path class="st7" d="M915.3,190.7l-122.8,4.8c-3.7,0.1-6.6,3.3-6.3,6.9c0.1,1,0.1,2,0.1,3.1c0,0.7,0,1.4,0,2.1
		c-0.2,3.5,2.4,6.5,5.9,6.9l120.6,12.9c3.4,0.4,6.5-1.9,7.2-5.3c1.5-8.1,2.3-16.4,2.3-24.8c0,0,0,0,0-0.1
		C922.1,193.5,919,190.6,915.3,190.7z"/>
	<path class="st7" d="M685.3,260.2c-2.8-0.1-5.6-0.2-8.4-0.3c-4.5-0.2-8.2,3.6-7.7,8.2l8.7,79.4c0.4,3.7,3.5,6.6,7.3,6.6
		c0,0,0,0,0.1,0c7.3,0,14.5-0.2,21.5-0.4c4.7-0.2,8.1-4.7,6.8-9.3l-21.3-78.7C691.3,262.5,688.5,260.3,685.3,260.2z"/>
	<path class="st7" d="M554.5,232.5c-1.5-0.6-3-1.2-4.5-1.9c-2.5-1.1-5.4-0.4-7.1,1.7l-65.8,77.9c-2.7,3.2-1.5,8.2,2.5,9.7
		c5.5,2.1,12.1,4.2,19.7,6.4c2.6,0.8,5.5-0.3,6.9-2.7l51.2-82.2C559.4,238.2,558,233.9,554.5,232.5z"/>
	<path class="st7" d="M750.3,335.1L718,266.2c-1.9-4.1-6.2-6.6-10.7-6.3c-0.1,0-0.1,0-0.2,0c-7,0.4-11.8,7.2-10,13.9l19,70.3
		c1.4,5.2,6.3,8.6,11.7,8.1c4.7-0.4,9.2-0.9,13.7-1.4C749.1,349.8,753.5,341.9,750.3,335.1z"/>
	<path class="st7" d="M761.5-73c3.5,0.2,6.9,0.4,10.2,0.6c2.9,0.2,5.3-2.1,5.3-4.9l0.3-83.9c0-2.6-2-4.8-4.7-5
		c-6.4-0.4-12.8-0.7-18.9-0.8c-3.5,0.5-5.2,1.7-5,5.5l8,84.1C757.1-75,759.1-73.1,761.5-73z"/>
	<path class="st7" d="M865.5-50.8C865.5-50.7,865.6-50.7,865.5-50.8c2.1,0.9,4.5,0.3,5.9-1.4l63.2-73.6c2.4-2.8,1.2-7-2.2-8.2
		c-5.8-2-12.6-4.2-20.2-6.4c-2.3-0.7-4.8,0.4-6,2.5L862.9-58C861.4-55.3,862.6-51.9,865.5-50.8z"/>
	<path class="st7" d="M734.1,256.2c-1,0.2-2,0.4-3.1,0.7c-6.8,1.4-10.4,8.8-7.5,15l32.2,68.8c2.1,4.4,6.9,6.9,11.7,6
		c7.7-1.5,15.2-3.2,22.3-5.2c7.4-2,10.4-10.9,5.7-16.9L745,260C742.4,256.7,738.2,255.3,734.1,256.2z"/>
	<path class="st7" d="M611.7,250.5c-2.6-0.6-5.2-1.3-7.8-1.9c-4.2-1.1-8.4,1.4-9.4,5.6l-20.6,80c-1.1,4.4,1.8,8.9,6.3,9.6
		c5.2,0.9,10.5,1.7,15.8,2.5c4.2,0.6,8.1-2.2,8.8-6.5l12.9-80.5C618.2,255.2,615.6,251.4,611.7,250.5z"/>
	<path class="st7" d="M587.7,244.1c-0.2-0.1-0.4-0.1-0.6-0.2c-3.2-1-6.5,0.6-7.9,3.6l-37.4,80.8c-1.8,3.9,0.5,8.4,4.7,9.3
		c5.4,1.1,10.9,2.2,16.5,3.2c3.4,0.6,6.8-1.5,7.6-4.9l21.5-83.8C593.1,248.6,591.1,245.1,587.7,244.1z"/>
	<path class="st7" d="M538.3,329.3l37-80.1c2-4.2-0.2-9.3-4.6-10.8c-0.4-0.1-0.7-0.2-1.1-0.4c-3.5-1.2-7.4,0.1-9.3,3.3l-48.3,77.6
		c-2.8,4.6-0.4,10.6,4.8,11.9c4,1,8.2,2,12.5,2.9C533.1,334.5,536.8,332.6,538.3,329.3z"/>
	<path class="st7" d="M718,28.5c-1.6-0.6-3.1-1.2-4.7-1.9c-1.7-0.7-3.6-0.6-5.2,0.1L591.7,80.2c-4.7,2.1-5.2,8.6-0.9,11.4
		c9.1,6,19,11.7,29.7,16.9c2.2,1.1,4.8,0.9,6.8-0.6l92.1-68.1C723.6,36.8,722.7,30.4,718,28.5z"/>
	<path class="st7" d="M633.1,254.9c-0.4-0.1-0.8-0.1-1.2-0.2c-5.8-1-11.3,2.9-12.2,8.7l-11.8,73.6c-0.9,5.9,3.2,11.4,9.1,12.1
		c4.3,0.5,8.6,1,12.8,1.5c6.2,0.7,11.6-4.2,11.7-10.4l0.3-74.9C641.8,260.1,638.2,255.7,633.1,254.9z"/>
	<path class="st7" d="M718.5,140.8l103.5-54.5c8.2-4.3,7.8-16.1-0.5-19.9c-4.2-1.9-8.5-3.8-12.9-5.6c-3.4-1.4-7.3-1.1-10.3,0.9
		L686.8,134c0.3,0.1,0.7,0.2,1,0.3c7.8,2.4,15.1,4.8,21.9,7.1C712.6,142.5,715.8,142.2,718.5,140.8z"/>
	<path class="st7" d="M790.1,64.2c4.3-2.8,3.6-9.4-1.3-11.2c-6.1-2.2-12.5-4.4-19.1-6.5c-1-0.3-1.9-0.6-2.9-0.9
		c-1.9-0.6-4-0.3-5.7,0.9L666,116.9c-4.1,3-3.1,9.3,1.7,11c4.4,1.5,8.8,2.9,13.3,4.4c1.8,0.6,3.7,0.3,5.3-0.7L790.1,64.2z"/>
	<path class="st7" d="M658.2,258.4c-1.2-0.1-2.5-0.3-3.7-0.4c-5.4-0.6-10,3.5-10.1,8.9l-0.3,76.7c0,4.8,3.6,8.7,8.4,9.1
		c4.3,0.3,8.6,0.6,12.7,0.8c5.6,0.3,10.1-4.5,9.5-10l-8.4-77C665.8,262.2,662.5,258.8,658.2,258.4z"/>
</g>
<g>
	<g>
		
			<rect x="862.8" y="-125.1" transform="matrix(-0.9248 -0.3804 0.3804 -0.9248 1714.3279 92.88)" class="st7" width="7.1" height="4.2"/>
		
			<rect x="851.9" y="-98.9" transform="matrix(-0.9248 -0.3804 0.3804 -0.9248 1683.4242 139.1252)" class="st7" width="7.1" height="4.2"/>
	</g>
	<g>
		
			<rect x="805.7" y="-132.9" transform="matrix(-0.9907 -0.1358 0.1358 -0.9907 1628.8182 -150.4409)" class="st7" width="7.1" height="4.2"/>
		
			<rect x="801.8" y="-104.8" transform="matrix(-0.9907 -0.1358 0.1358 -0.9907 1617.129 -95.0971)" class="st7" width="7.1" height="4.2"/>
	</g>
	<g>
		
			<rect x="747.4" y="-137.2" transform="matrix(-0.9984 5.633160e-002 -5.633160e-002 -0.9984 1493.0658 -312.3104)" class="st7" width="7.1" height="4.2"/>
		
			<rect x="748.9" y="-108.9" transform="matrix(-0.9984 5.633160e-002 -5.633160e-002 -0.9984 1497.6399 -255.8214)" class="st7" width="7.1" height="4.2"/>
	</g>
	<g>
		
			<rect x="681.6" y="-129.8" transform="matrix(-0.93 0.3675 -0.3675 -0.93 1275.517 -498.3046)" class="st7" width="7.1" height="4.2"/>
		
			<rect x="692" y="-103.4" transform="matrix(-0.93 0.3675 -0.3675 -0.93 1305.1338 -451.136)" class="st7" width="7.1" height="4.2"/>
	</g>
	<g>
		
			<rect x="590" y="-112.6" transform="matrix(-0.6677 0.7444 -0.7444 -0.6677 907.5848 -626.2412)" class="st7" width="7.1" height="4.2"/>
		
			<rect x="611" y="-93.6" transform="matrix(-0.6677 0.7444 -0.7444 -0.6677 956.8099 -610.2023)" class="st7" width="7.1" height="4.2"/>
	</g>
	<g>
		
			<rect x="629.9" y="-76.4" transform="matrix(-0.6677 0.7444 -0.7444 -0.6677 1001.0835 -595.4498)" class="st7" width="7.1" height="4.2"/>
		
			<rect x="650.9" y="-57.4" transform="matrix(-0.6677 0.7444 -0.7444 -0.6677 1050.3087 -579.411)" class="st7" width="7.1" height="4.2"/>
	</g>
	<g>
		
			<rect x="599.3" y="-21.7" transform="matrix(-0.1134 0.9935 -0.9935 -0.1134 651.6674 -620.8217)" class="st7" width="7.1" height="4.2"/>
		
			<rect x="627.4" y="-18.4" transform="matrix(-0.1134 0.9935 -0.9935 -0.1134 686.3123 -645.0962)" class="st7" width="7.1" height="4.2"/>
	</g>
	<g>
		
			<rect x="543.9" y="-29.3" transform="matrix(-0.1134 0.9935 -0.9935 -0.1134 582.5615 -574.2631)" class="st7" width="7.1" height="4.2"/>
		
			<rect x="572.1" y="-26" transform="matrix(-0.1134 0.9935 -0.9935 -0.1134 617.2064 -598.5375)" class="st7" width="7.1" height="4.2"/>
	</g>
	<g>
		
			<rect x="602.5" y="33.3" transform="matrix(0.2645 0.9644 -0.9644 0.2645 479.8694 -558.486)" class="st7" width="7.1" height="4.2"/>
		
			<rect x="629.9" y="25.9" transform="matrix(0.2645 0.9644 -0.9644 0.2645 492.8646 -590.3174)" class="st7" width="7.1" height="4.2"/>
	</g>
	<g>
		
			<rect x="641.3" y="92.4" transform="matrix(0.5395 0.842 -0.842 0.5395 376.4814 -499.4947)" class="st7" width="7.1" height="4.2"/>
		
			<rect x="665.3" y="77.2" transform="matrix(0.5395 0.842 -0.842 0.5395 374.6954 -526.6401)" class="st7" width="7.1" height="4.2"/>
	</g>
	<g>
		
			<rect x="682.4" y="64.3" transform="matrix(0.659 0.7521 -0.7521 0.659 283.8198 -493.2446)" class="st7" width="7.1" height="4.2"/>
		
			<rect x="703.7" y="45.7" transform="matrix(0.659 0.7521 -0.7521 0.659 277.122 -515.6755)" class="st7" width="7.1" height="4.2"/>
	</g>
	<g>
		
			<rect x="725.2" y="101.6" transform="matrix(0.5548 0.832 -0.832 0.5548 410.7886 -560.1733)" class="st7" width="7.1" height="4.2"/>
		<path class="st7" d="M752.2,84l3.9,5.8c0,0,0,0.1,0,0.1l-3.3,2.2c0,0-0.1,0-0.1,0l-3.9-5.8c0,0,0-0.1,0-0.1l3.3-2.2
			C752.2,84,752.2,84,752.2,84z"/>
		<path class="st7" d="M770.2,74.4l3.9,5.8c0,0,0,0.1,0,0.1l-3.3,2.2c0,0-0.1,0-0.1,0l-3.9-5.8c0,0,0-0.1,0-0.1l3.3-2.2
			C770.1,74.4,770.2,74.4,770.2,74.4z"/>
		<path class="st7" d="M786.1,63.4l3.9,5.8c0,0,0,0.1,0,0.1l-3.3,2.2c0,0-0.1,0-0.1,0l-3.9-5.8c0,0,0-0.1,0-0.1l3.3-2.2
			C786,63.3,786,63.3,786.1,63.4z"/>
		<path class="st7" d="M787.7,62.4l3.9,5.8c0,0,0,0.1,0,0.1l-3.3,2.2c0,0-0.1,0-0.1,0l-3.9-5.8c0,0,0-0.1,0-0.1l3.3-2.2
			C787.6,62.3,787.7,62.3,787.7,62.4z"/>
	</g>
	<g>
		
			<rect x="823.4" y="118" transform="matrix(0.3794 0.9253 -0.9253 0.3794 624.4056 -690.5944)" class="st7" width="7.1" height="4.2"/>
		
			<rect x="849.7" y="107.4" transform="matrix(0.3794 0.9253 -0.9253 0.3794 630.8502 -721.5135)" class="st7" width="7.1" height="4.2"/>
	</g>
	<g>
		
			<rect x="773.7" y="137.5" transform="matrix(0.3794 0.9253 -0.9253 0.3794 611.5131 -632.4995)" class="st7" width="7.1" height="4.2"/>
		
			<rect x="799.9" y="126.8" transform="matrix(0.3794 0.9253 -0.9253 0.3794 617.9576 -663.4186)" class="st7" width="7.1" height="4.2"/>
	</g>
	<g>
		
			<rect x="806.3" y="170.4" transform="matrix(0.1431 0.9897 -0.9897 0.1431 864.0262 -652.9752)" class="st7" width="5.6" height="4.2"/>
		
			<rect x="834.6" y="166.4" transform="matrix(0.1431 0.9897 -0.9897 0.1431 884.2822 -684.3774)" class="st7" width="5.6" height="4.2"/>
	</g>
	<g>
		
			<rect x="887.9" y="157.8" transform="matrix(0.1431 0.9897 -0.9897 0.1431 921.8083 -744.1455)" class="st7" width="5.6" height="5"/>
		
			<rect x="854.7" y="162.7" transform="matrix(0.1431 0.9897 -0.9897 0.1431 898.2266 -707.1503)" class="st7" width="5.6" height="5"/>
	</g>
	<g>
		
			<rect x="871.4" y="220.6" transform="matrix(-8.094430e-002 0.9967 -0.9967 -8.094430e-002 1167.2972 -630.2161)" class="st7" width="5.6" height="5"/>
		
			<rect x="838" y="218" transform="matrix(-8.094430e-002 0.9967 -0.9967 -8.094430e-002 1128.5621 -599.7588)" class="st7" width="5.6" height="5"/>
	</g>
	<g>
		
			<rect x="827.7" y="290.4" transform="matrix(-0.614 0.7893 -0.7893 -0.614 1571.6095 -182.7934)" class="st7" width="5.6" height="5"/>
		
			<rect x="801.2" y="269.9" transform="matrix(-0.614 0.7893 -0.7893 -0.614 1512.644 -194.9786)" class="st7" width="5.6" height="5"/>
	</g>
	<g>
		
			<rect x="742.9" y="316.6" transform="matrix(-0.8847 0.4661 -0.4661 -0.8847 1554.0691 253.7276)" class="st7" width="5.6" height="5"/>
		
			<rect x="727.2" y="287" transform="matrix(-0.8847 0.4661 -0.4661 -0.8847 1510.6864 205.2357)" class="st7" width="5.6" height="5"/>
	</g>
	<g>
		
			<rect x="671.2" y="324.4" transform="matrix(-0.9962 8.699051e-002 -8.699051e-002 -0.9962 1373.96 594.0332)" class="st7" width="5.6" height="5"/>
		
			<rect x="668.2" y="290.7" transform="matrix(-0.9962 8.699051e-002 -8.699051e-002 -0.9962 1364.9668 526.8669)" class="st7" width="5.6" height="5"/>
	</g>
	<g>
		
			<rect x="574.6" y="310.9" transform="matrix(-0.9628 -0.2703 0.2703 -0.9628 1048.505 771.2031)" class="st7" width="5.6" height="5"/>
		
			<rect x="575.6" y="307.7" transform="matrix(-0.9628 -0.2703 0.2703 -0.9628 1051.3239 765.2582)" class="st7" width="5.6" height="5"/>
		
			<rect x="554.3" y="288.8" transform="matrix(-0.9628 -0.2703 0.2703 -0.9628 1014.7289 722.3845)" class="st7" width="5.6" height="5"/>
		
			<rect x="582.4" y="277" transform="matrix(-0.9628 -0.2703 0.2703 -0.9628 1073.0608 706.7359)" class="st7" width="5.6" height="5"/>
	</g>
	<g>
		
			<rect x="521.9" y="293.9" transform="matrix(-0.8444 -0.5357 0.5357 -0.8444 809.0047 827.6797)" class="st7" width="5.6" height="5"/>
		
			<rect x="522.6" y="292" transform="matrix(-0.8444 -0.5357 0.5357 -0.8444 811.3968 824.6079)" class="st7" width="5.6" height="5"/>
		
			<rect x="609.3" y="295.3" transform="matrix(-0.9827 -0.1853 0.1853 -0.9827 1158.3774 703.856)" class="st7" width="5.6" height="5"/>
		
			<rect x="540" y="265.2" transform="matrix(-0.8444 -0.5357 0.5357 -0.8444 857.7479 784.4695)" class="st7" width="5.6" height="5"/>
	</g>
	<g>
		<path class="st7" d="M896.9-119.8l-2.7-1.1c-1.1-0.4-1.6-1.7-1.1-2.7v0c0.4-1.1,1.7-1.6,2.7-1.1l2.7,1.1c1.1,0.4,1.6,1.7,1.1,2.7
			v0C899.2-119.9,898-119.4,896.9-119.8z"/>
		<path class="st7" d="M896.9-120.2l-2.7-1.1c-1.1-0.4-1.6-1.7-1.1-2.7l0,0c0.4-1.1,1.7-1.6,2.7-1.1l2.7,1.1
			c1.1,0.4,1.6,1.7,1.1,2.7l0,0C899.2-120.2,898-119.7,896.9-120.2z"/>
		<path class="st7" d="M897.7-122.5l-2.7-1.1c-1.1-0.4-1.6-1.7-1.1-2.7l0,0c0.4-1.1,1.7-1.6,2.7-1.1l2.7,1.1
			c1.1,0.4,1.6,1.7,1.1,2.7v0C900-122.6,898.8-122,897.7-122.5z"/>
		<path class="st7" d="M868.5-123.8l-2.7-1.1c-1.1-0.4-1.6-1.7-1.1-2.7l0,0c0.4-1.1,1.7-1.6,2.7-1.1l2.7,1.1
			c1.1,0.4,1.6,1.7,1.1,2.7l0,0C870.8-123.8,869.6-123.3,868.5-123.8z"/>
		<path class="st7" d="M872.9-77.4l-2.7-1.1c-1.1-0.4-1.6-1.7-1.1-2.7v0c0.4-1.1,1.7-1.6,2.7-1.1l2.7,1.1c1.1,0.4,1.6,1.7,1.1,2.7v0
			C875.2-77.4,874-76.9,872.9-77.4z"/>
		<path class="st7" d="M855.4-92.1l-2.7-1.1c-1.1-0.4-1.6-1.7-1.1-2.7v0c0.4-1.1,1.7-1.6,2.7-1.1L857-96c1.1,0.4,1.6,1.7,1.1,2.7v0
			C857.7-92.2,856.5-91.7,855.4-92.1z"/>
		<path class="st7" d="M872.4-73.3l-4.9-2.9c-0.3-0.2-0.5-0.6-0.3-1l1.4-2.4c0.2-0.3,0.6-0.5,1-0.3l4.9,2.9c0.3,0.2,0.5,0.6,0.3,1
			l-1.4,2.4C873.1-73.2,872.7-73.1,872.4-73.3z"/>
		<path class="st7" d="M885.7-96.9l-4.9-2.9c-0.3-0.2-0.5-0.6-0.3-1l1.4-2.4c0.2-0.3,0.6-0.5,1-0.3l4.9,2.9c0.3,0.2,0.5,0.6,0.3,1
			l-1.4,2.4C886.5-96.8,886.1-96.7,885.7-96.9z"/>
	</g>
	<g>
		<path class="st7" d="M840.6-135.1l-2.9-0.2c-1.2-0.1-2-1.1-1.9-2.2l0,0c0.1-1.2,1.1-2,2.2-1.9l2.9,0.2c1.2,0.1,2,1.1,1.9,2.2v0
			C842.8-135.9,841.7-135,840.6-135.1z"/>
		<path class="st7" d="M831.8-82.6l-5.5-1.2c-0.4-0.1-0.6-0.5-0.6-0.9l0.6-2.7c0.1-0.4,0.5-0.6,0.9-0.6l5.5,1.2
			c0.4,0.1,0.6,0.5,0.6,0.9l-0.6,2.7C832.6-82.8,832.2-82.5,831.8-82.6z"/>
		<path class="st7" d="M837.3-109.2l-5.5-1.2c-0.4-0.1-0.6-0.5-0.6-0.9l0.6-2.7c0.1-0.4,0.5-0.6,0.9-0.6l5.5,1.2
			c0.4,0.1,0.6,0.5,0.6,0.9l-0.6,2.7C838-109.4,837.6-109.1,837.3-109.2z"/>
	</g>
	<g>
		<path class="st7" d="M778.6-140.7l-2.9,0.4c-1.1,0.1-2.2-0.7-2.3-1.8l0,0c-0.1-1.1,0.7-2.2,1.8-2.3l2.9-0.4
			c1.1-0.1,2.2,0.7,2.3,1.8l0,0C780.6-141.8,779.8-140.8,778.6-140.7z"/>
		<path class="st7" d="M780.7-87.5l-5.7-0.1c-0.4,0-0.7-0.3-0.7-0.7l0-2.7c0-0.4,0.3-0.7,0.7-0.7l5.7,0.1c0.4,0,0.7,0.3,0.7,0.7
			l0,2.7C781.4-87.8,781.1-87.5,780.7-87.5z"/>
		<path class="st7" d="M780.6-114.6l-5.7-0.1c-0.4,0-0.7-0.3-0.7-0.7l0-2.7c0-0.4,0.3-0.7,0.7-0.7l5.7,0.1c0.4,0,0.7,0.3,0.7,0.7
			l0,2.7C781.3-114.9,781-114.6,780.6-114.6z"/>
	</g>
	<g>
		<path class="st7" d="M717.3-141.7l-2.7,1.1c-1.1,0.4-2.3-0.1-2.7-1.2l0,0c-0.4-1.1,0.1-2.3,1.2-2.7l2.7-1.1
			c1.1-0.4,2.3,0.1,2.7,1.2l0,0C718.9-143.3,718.4-142.1,717.3-141.7z"/>
		<path class="st7" d="M731.9-90.5l-5.5,1.3c-0.4,0.1-0.8-0.2-0.9-0.5l-0.6-2.7c-0.1-0.4,0.2-0.8,0.5-0.9l5.5-1.3
			c0.4-0.1,0.8,0.2,0.9,0.5l0.6,2.7C732.6-91,732.3-90.6,731.9-90.5z"/>
		<path class="st7" d="M725.4-116.9l-5.5,1.3c-0.4,0.1-0.8-0.2-0.9-0.5l-0.6-2.7c-0.1-0.4,0.2-0.8,0.5-0.9l5.5-1.3
			c0.4-0.1,0.8,0.2,0.9,0.5l0.6,2.7C726-117.3,725.8-116.9,725.4-116.9z"/>
	</g>
	<g>
		<path class="st7" d="M645.3-124.9l-2.2,1.9c-0.9,0.7-2.2,0.6-3-0.2v0c-0.7-0.9-0.6-2.2,0.2-3l2.2-1.9c0.9-0.7,2.2-0.6,3,0.2l0,0
			C646.3-127,646.2-125.7,645.3-124.9z"/>
		<path class="st7" d="M676-81.5l-4.8,3c-0.3,0.2-0.8,0.1-1-0.2l-1.5-2.3c-0.2-0.3-0.1-0.8,0.2-1l4.8-3c0.3-0.2,0.8-0.1,1,0.2
			l1.5,2.3C676.5-82.1,676.4-81.7,676-81.5z"/>
		<path class="st7" d="M661.1-104.2l-4.8,3c-0.3,0.2-0.8,0.1-1-0.2l-1.5-2.3c-0.2-0.3-0.1-0.8,0.2-1l4.8-3c0.3-0.2,0.8-0.1,1,0.2
			l1.5,2.3C661.6-104.9,661.5-104.4,661.1-104.2z"/>
	</g>
	<g>
		<path class="st7" d="M583.2-64.4l-1,2.8c-0.4,1.1-1.6,1.7-2.7,1.3l0,0c-1.1-0.4-1.7-1.6-1.3-2.7l1-2.8c0.4-1.1,1.6-1.7,2.7-1.3
			l0,0C583-66.7,583.6-65.5,583.2-64.4z"/>
		<path class="st7" d="M631.5-42l-2.7,5c-0.2,0.4-0.6,0.5-1,0.3l-2.4-1.3c-0.4-0.2-0.5-0.6-0.3-1l2.7-5c0.2-0.4,0.6-0.5,1-0.3
			l2.4,1.3C631.5-42.8,631.7-42.3,631.5-42z"/>
		<path class="st7" d="M607.3-54.3l-2.7,5c-0.2,0.4-0.6,0.5-1,0.3l-2.4-1.3c-0.4-0.2-0.5-0.6-0.3-1l2.7-5c0.2-0.4,0.6-0.5,1-0.3
			l2.4,1.3C607.3-55.1,607.4-54.6,607.3-54.3z"/>
	</g>
	<g>
		<path class="st7" d="M576.3,9.1l0.6,2.9c0.2,1.1-0.5,2.2-1.7,2.5l0,0c-1.1,0.2-2.2-0.5-2.5-1.7l-0.6-2.9c-0.2-1.1,0.5-2.2,1.7-2.5
			l0,0C575,7.2,576.1,8,576.3,9.1z"/>
		<path class="st7" d="M629.2,3.8l0.3,5.7c0,0.4-0.3,0.7-0.7,0.8l-2.7,0.1c-0.4,0-0.7-0.3-0.8-0.7L625,4c0-0.4,0.3-0.7,0.7-0.8
			l2.7-0.1C628.9,3.1,629.2,3.4,629.2,3.8z"/>
		<path class="st7" d="M602.1,5.5l0.3,5.7c0,0.4-0.3,0.7-0.7,0.8l-2.7,0.1c-0.4,0-0.7-0.3-0.8-0.7L598,5.7c0-0.4,0.3-0.7,0.7-0.8
			l2.7-0.1C601.8,4.8,602.1,5.1,602.1,5.5z"/>
	</g>
	<g>
		<path class="st7" d="M620.8,63.3l1.5,2.5c0.6,1,0.3,2.3-0.7,2.9l0,0c-1,0.6-2.3,0.3-2.9-0.7l-1.5-2.5c-0.6-1-0.3-2.3,0.7-2.9l0,0
			C618.9,62,620.2,62.4,620.8,63.3z"/>
		<path class="st7" d="M668.5,39.8l2.2,5.2c0.2,0.4,0,0.8-0.4,1l-2.5,1.1c-0.4,0.2-0.8,0-1-0.4l-2.2-5.2c-0.2-0.4,0-0.8,0.4-1
			l2.5-1.1C667.9,39.3,668.3,39.4,668.5,39.8z"/>
		<path class="st7" d="M643.7,50.9l2.2,5.2c0.2,0.4,0,0.8-0.4,1l-2.5,1.1c-0.4,0.2-0.8,0-1-0.4l-2.2-5.2c-0.2-0.4,0-0.8,0.4-1
			l2.5-1.1C643.2,50.4,643.6,50.6,643.7,50.9z"/>
	</g>
	<g>
		<path class="st7" d="M687.8,97.7l2,2.1c0.8,0.8,0.8,2.2-0.1,3l0,0c-0.8,0.8-2.2,0.8-3-0.1l-2-2.1c-0.8-0.8-0.8-2.2,0.1-3l0,0
			C685.6,96.8,687,96.8,687.8,97.7z"/>
		<path class="st7" d="M729.5,64.7l3.3,4.6c0.2,0.3,0.2,0.8-0.2,1l-2.2,1.6c-0.3,0.2-0.8,0.2-1-0.2l-3.3-4.6c-0.2-0.3-0.2-0.8,0.2-1
			l2.2-1.6C728.9,64.3,729.3,64.4,729.5,64.7z"/>
		<path class="st7" d="M707.6,80.8l3.3,4.6c0.2,0.3,0.2,0.8-0.2,1l-2.2,1.6c-0.3,0.2-0.8,0.2-1-0.2l-3.3-4.6c-0.2-0.3-0.2-0.8,0.2-1
			l2.2-1.6C707,80.4,707.4,80.4,707.6,80.8z"/>
	</g>
	<g>
		<path class="st7" d="M750,123.9l1.7,2.4c0.7,0.9,0.4,2.3-0.5,2.9h0c-0.9,0.7-2.3,0.4-2.9-0.5l-1.7-2.4c-0.7-0.9-0.4-2.3,0.5-2.9
			l0,0C748.1,122.7,749.4,123,750,123.9z"/>
		<path class="st7" d="M796.2,97.4l2.6,5.1c0.2,0.4,0,0.8-0.3,1l-2.4,1.2c-0.4,0.2-0.8,0-1-0.3l-2.6-5.1c-0.2-0.4,0-0.8,0.3-1
			l2.4-1.2C795.6,96.9,796,97.1,796.2,97.4z"/>
		<path class="st7" d="M772.2,110.1l2.6,5.1c0.2,0.4,0,0.8-0.3,1l-2.4,1.2c-0.4,0.2-0.8,0-1-0.3l-2.6-5.1c-0.2-0.4,0-0.8,0.3-1
			l2.4-1.2C771.5,109.6,772,109.7,772.2,110.1z"/>
	</g>
	<g>
		<path class="st7" d="M806.5,152.1l1,2.8c0.4,1.1-0.1,2.3-1.2,2.7l0,0c-1.1,0.4-2.3-0.1-2.7-1.2l-1-2.8c-0.4-1.1,0.1-2.3,1.2-2.7
			l0,0C804.9,150.4,806.1,151,806.5,152.1z"/>
		<path class="st7" d="M857.8,138.1l1.2,5.5c0.1,0.4-0.2,0.8-0.6,0.9l-2.7,0.6c-0.4,0.1-0.8-0.2-0.9-0.6l-1.2-5.5
			c-0.1-0.4,0.2-0.8,0.6-0.9l2.7-0.6C857.4,137.4,857.7,137.7,857.8,138.1z"/>
		<path class="st7" d="M831.4,144.3l1.2,5.5c0.1,0.4-0.2,0.8-0.6,0.9l-2.7,0.6c-0.4,0.1-0.8-0.2-0.9-0.6l-1.2-5.5
			c-0.1-0.4,0.2-0.8,0.6-0.9l2.7-0.6C830.9,143.6,831.3,143.9,831.4,144.3z"/>
	</g>
	<g>
		<path class="st7" d="M829.6,191.1l0.4,2.9c0.2,1.1-0.7,2.2-1.8,2.4l0,0c-1.1,0.2-2.2-0.7-2.4-1.8l-0.4-2.9
			c-0.2-1.1,0.7-2.2,1.8-2.4l0,0C828.4,189.1,829.5,189.9,829.6,191.1z"/>
		<path class="st7" d="M882.8,188.8l-0.1,5.7c0,0.4-0.3,0.7-0.7,0.7l-2.7,0c-0.4,0-0.7-0.3-0.7-0.7l0.1-5.7c0-0.4,0.3-0.7,0.7-0.7
			l2.7,0C882.5,188.1,882.8,188.4,882.8,188.8z"/>
		<path class="st7" d="M855.7,189l-0.1,5.7c0,0.4-0.3,0.7-0.7,0.7l-2.7,0c-0.4,0-0.7-0.3-0.7-0.7l0.1-5.7c0-0.4,0.3-0.7,0.7-0.7
			l2.7,0C855.3,188.3,855.7,188.6,855.7,189z"/>
	</g>
	<g>
		<path class="st7" d="M819.7,243.3l-0.8,2.8c-0.3,1.1-1.5,1.8-2.6,1.5l0,0c-1.1-0.3-1.8-1.5-1.5-2.6l0.8-2.8
			c0.3-1.1,1.5-1.8,2.6-1.5l0,0C819.3,241,820,242.1,819.7,243.3z"/>
		<path class="st7" d="M869.4,262.1l-2.3,5.2c-0.2,0.4-0.6,0.5-1,0.4l-2.5-1.1c-0.4-0.2-0.5-0.6-0.4-1l2.3-5.2
			c0.2-0.4,0.6-0.5,1-0.4l2.5,1.1C869.4,261.3,869.6,261.7,869.4,262.1z"/>
		<path class="st7" d="M844.4,251.6l-2.3,5.2c-0.2,0.4-0.6,0.5-1,0.4l-2.5-1.1c-0.4-0.2-0.5-0.6-0.4-1l2.3-5.2
			c0.2-0.4,0.6-0.5,1-0.4l2.5,1.1C844.4,250.8,844.6,251.2,844.4,251.6z"/>
	</g>
	<g>
		<path class="st7" d="M761.5,276l-2.2,2c-0.8,0.8-2.2,0.7-3-0.1l0,0c-0.8-0.8-0.7-2.2,0.1-3l2.2-2c0.8-0.8,2.2-0.7,3,0.1l0,0
			C762.4,273.9,762.3,275.2,761.5,276z"/>
		<path class="st7" d="M794.1,318.1l-4.7,3.2c-0.3,0.2-0.8,0.1-1-0.2l-1.6-2.2c-0.2-0.3-0.1-0.8,0.2-1l4.7-3.2
			c0.3-0.2,0.8-0.1,1,0.2l1.6,2.2C794.5,317.4,794.4,317.8,794.1,318.1z"/>
		<path class="st7" d="M778.2,296l-4.7,3.2c-0.3,0.2-0.8,0.1-1-0.2l-1.6-2.2c-0.2-0.3-0.1-0.8,0.2-1l4.7-3.2c0.3-0.2,0.8-0.1,1,0.2
			l1.6,2.2C778.6,295.3,778.5,295.8,778.2,296z"/>
	</g>
	<g>
		<path class="st7" d="M700.4,286.7l-2.7,1.1c-1.1,0.4-2.3-0.1-2.7-1.2l0,0c-0.4-1.1,0.1-2.3,1.2-2.7l2.7-1.1
			c1.1-0.4,2.3,0.1,2.7,1.2l0,0C702,285.1,701.4,286.3,700.4,286.7z"/>
		<path class="st7" d="M715,337.8l-5.5,1.3c-0.4,0.1-0.8-0.2-0.9-0.5l-0.6-2.7c-0.1-0.4,0.2-0.8,0.5-0.9l5.5-1.3
			c0.4-0.1,0.8,0.2,0.9,0.5l0.6,2.7C715.7,337.4,715.4,337.7,715,337.8z"/>
		<path class="st7" d="M708.5,311.5l-5.5,1.3c-0.4,0.1-0.8-0.2-0.9-0.5l-0.6-2.7c-0.1-0.4,0.2-0.8,0.5-0.9l5.5-1.3
			c0.4-0.1,0.8,0.2,0.9,0.5l0.6,2.7C709.1,311,708.9,311.4,708.5,311.5z"/>
	</g>
	<g>
		<path class="st7" d="M644.7,285.1l-2.9,0.2c-1.2,0.1-2.2-0.7-2.3-1.7l0,0c-0.1-1,0.8-1.9,1.9-2l2.9-0.2c1.2-0.1,2.2,0.7,2.3,1.7
			l0,0C646.7,284.1,645.8,285,644.7,285.1z"/>
		<path class="st7" d="M644.2,332.3l-5.7-0.3c-0.4,0-0.7-0.3-0.7-0.7l0.2-2.4c0-0.4,0.4-0.6,0.8-0.6l5.7,0.3c0.4,0,0.7,0.3,0.7,0.7
			l-0.2,2.4C645,332.1,644.6,332.4,644.2,332.3z"/>
		<path class="st7" d="M645.4,308.3l-5.7-0.3c-0.4,0-0.7-0.3-0.7-0.7l0.2-2.4c0-0.4,0.4-0.6,0.8-0.6l5.7,0.3c0.4,0,0.7,0.3,0.7,0.7
			l-0.2,2.4C646.2,308,645.8,308.3,645.4,308.3z"/>
	</g>
	<g>
		<path class="st7" d="M617,280l-2.9-0.2c-1.2-0.1-2-1-2-2l0,0c0.1-1,1-1.8,2.2-1.7l2.9,0.2c1.2,0.1,2,1,2,2l0,0
			C619.1,279.3,618.1,280.1,617,280z"/>
		<path class="st7" d="M609.8,326.7l-5.6-1.1c-0.4-0.1-0.6-0.4-0.6-0.8l0.5-2.4c0.1-0.3,0.5-0.6,0.8-0.5l5.6,1.1
			c0.4,0.1,0.6,0.4,0.6,0.8l-0.5,2.4C610.5,326.6,610.2,326.8,609.8,326.7z"/>
		<path class="st7" d="M614.4,303l-5.6-1.1c-0.4-0.1-0.6-0.4-0.6-0.8l0.5-2.4c0.1-0.3,0.5-0.6,0.8-0.5l5.6,1.1
			c0.4,0.1,0.6,0.4,0.6,0.8l-0.5,2.4C615.2,302.9,614.8,303.1,614.4,303z"/>
	</g>
	<g>
		<path class="st7" d="M566.7,271.1l-2.8-1c-1.1-0.4-1.7-1.5-1.4-2.5l0,0c0.3-1,1.5-1.4,2.6-1l2.8,1c1.1,0.4,1.7,1.5,1.4,2.5l0,0
			C568.9,271,567.8,271.5,566.7,271.1z"/>
		<path class="st7" d="M547,314l-5.1-2.6c-0.4-0.2-0.5-0.6-0.3-0.9l1.1-2.2c0.2-0.3,0.6-0.4,0.9-0.2l5.1,2.6
			c0.4,0.2,0.5,0.6,0.3,0.9l-1.1,2.2C547.8,314.1,547.4,314.2,547,314z"/>
		<path class="st7" d="M558,292.5l-5.1-2.6c-0.4-0.2-0.5-0.6-0.3-0.9l1.1-2.2c0.2-0.3,0.6-0.4,0.9-0.2l5.1,2.6
			c0.4,0.2,0.5,0.6,0.3,0.9l-1.1,2.2C558.7,292.6,558.3,292.7,558,292.5z"/>
	</g>
</g>
<path class="st8" d="M235.8-168L65,354h168.5l62.8-193h175.2L598.2,28H394.5l-83.8,90.8L360.3-35h272.1c4.3,0,11.7-5.2,22-15.7
	c10.3-10.4,20.9-22.9,31.9-37.2c11.1-14.5,21.3-29.2,30.8-43.9c9.6-14.8,16.6-26,21-36.1H235.8z"/>
</svg>
