<?xml version="1.0" encoding="utf-8"?>
<!-- Generator: Adobe Illustrator 22.0.1, SVG Export Plug-In . SVG Version: 6.00 Build 0)  -->
<svg version="1.1" id="Слой_1" xmlns="http://www.w3.org/2000/svg" xmlns:xlink="http://www.w3.org/1999/xlink" x="0px" y="0px"
	 viewBox="0 0 570 360.8" style="enable-background:new 0 0 570 360.8;" xml:space="preserve">
<style type="text/css">
	.st0{fill:#0C9E2E;}
	.st1{fill:#FFFFFF;}
	.st2{display:none;enable-background:new    ;}
	.st3{font-family:'BerenisADFPro-Regular';}
	.st4{font-size:482.0543px;}
</style>
<path class="st0" d="M118.2,0.3L0,360.8h116.7l43.4-132.6h121.3l87.7-91.8h-141l-58,62.6l34.3-106.9h188.3c3,0,8.1-3.6,15.2-10.9
	C415,74,422.3,65.3,430,55.4c7.6-10,14.7-20.1,21.3-30.3s11.5-18.5,14.5-24.9L118.2,0.3L118.2,0.3z"/>
<g>
	<path class="st1" d="M467.6,158.8l-51.1-13.5c-42.6-11.1-61.3-35.2-61.3-69.9c0-40,26.1-67.5,65.8-67.5c64.7,0,96.5,67,107.8,113.3
		h23.3L546.4,7H526v49.2c-15.9-39-48.8-56.4-103.3-56.4h-2.3c-63.6,0-106.7,39-106.7,97.4c0,15.3,2.5,28.2,7.9,39.3l0,0
		c0.3,0,47.4,0,47.4,0l-25,26.1c0,0,37.5,20.2,67.3,27.6l45.4,12.1c17,4.3,69.8,10.1,69.8,74.2c0,29.9-15.3,78.6-77.8,78.6
		c-72.1,0-107.8-63.1-119.8-125.8h-22.5l1.7,131.6h21l-0.6-51.1c22.7,34.7,74.4,53,115.8,53c70.9,0,123.7-34.7,123.7-101.2
		C568,179.5,502.8,167,467.6,158.8z"/>
</g>
<text id="ilter_Systems_SHG_1_" transform="matrix(1.1774 0 0 1 264.4732 438.8304)" class="st2 st3 st4">S</text>
</svg>
